<?xml version="1.0" encoding="UTF-8"?>
<svg xmlns="http://www.w3.org/2000/svg" xmlns:xlink="http://www.w3.org/1999/xlink" width="737pt" height="544pt" viewBox="0 0 737 544" version="1.1">
<g id="surface1">
<path style=" stroke:none;fill-rule:nonzero;fill:rgb(90.196078%,90.196078%,90.196078%);fill-opacity:1;" d="M 0.21875 0.324219 L 508.074219 0.324219 L 508.074219 367.066406 L 0.21875 367.066406 Z M 0.21875 0.324219 "/>
<path style=" stroke:none;fill-rule:nonzero;fill:rgb(100%,100%,100%);fill-opacity:1;" d="M 14.738281 46.324219 L 493.550781 46.324219 L 493.550781 345.371094 L 14.738281 345.371094 Z M 14.738281 46.324219 "/>
<path style=" stroke:none;fill-rule:nonzero;fill:rgb(42.352941%,38.823529%,100%);fill-opacity:1;" d="M 0 0 L 507.859375 0 L 507.859375 24.328125 L 0 24.328125 Z M 0 0 "/>
<path style=" stroke:none;fill-rule:nonzero;fill:rgb(100%,100%,100%);fill-opacity:1;" d="M 20.03125 12.4375 C 20.03125 14.929688 18.242188 16.945312 16.035156 16.945312 C 13.824219 16.945312 12.035156 14.929688 12.035156 12.4375 C 12.035156 9.949219 13.824219 7.929688 16.035156 7.929688 C 18.242188 7.929688 20.03125 9.949219 20.03125 12.4375 Z M 20.03125 12.4375 "/>
<path style=" stroke:none;fill-rule:nonzero;fill:rgb(100%,100%,100%);fill-opacity:1;" d="M 35.210938 12.4375 C 35.210938 14.929688 33.421875 16.945312 31.210938 16.945312 C 29.003906 16.945312 27.214844 14.929688 27.214844 12.4375 C 27.214844 9.949219 29.003906 7.929688 31.210938 7.929688 C 33.421875 7.929688 35.210938 9.949219 35.210938 12.4375 Z M 35.210938 12.4375 "/>
<path style=" stroke:none;fill-rule:nonzero;fill:rgb(100%,100%,100%);fill-opacity:1;" d="M 50.390625 12.4375 C 50.390625 14.929688 48.597656 16.945312 46.390625 16.945312 C 44.183594 16.945312 42.390625 14.929688 42.390625 12.4375 C 42.390625 9.949219 44.183594 7.929688 46.390625 7.929688 C 48.597656 7.929688 50.390625 9.949219 50.390625 12.4375 Z M 50.390625 12.4375 "/>
<path style=" stroke:none;fill-rule:nonzero;fill:rgb(42.352941%,38.823529%,100%);fill-opacity:1;" d="M 55.476562 92.234375 L 326.449219 92.234375 L 326.449219 264.101562 L 55.476562 264.101562 Z M 55.476562 92.234375 "/>
<path style=" stroke:none;fill-rule:nonzero;fill:rgb(90.196078%,90.196078%,90.196078%);fill-opacity:1;" d="M 364.261719 92.234375 L 467.449219 92.234375 L 467.449219 157.683594 L 364.261719 157.683594 Z M 364.261719 92.234375 "/>
<path style=" stroke:none;fill-rule:nonzero;fill:rgb(90.196078%,90.196078%,90.196078%);fill-opacity:1;" d="M 364.261719 178.390625 L 467.449219 178.390625 L 467.449219 243.839844 L 364.261719 243.839844 Z M 364.261719 178.390625 "/>
<path style=" stroke:none;fill-rule:nonzero;fill:rgb(90.196078%,90.196078%,90.196078%);fill-opacity:1;" d="M 364.261719 264.542969 L 467.449219 264.542969 L 467.449219 329.992188 L 364.261719 329.992188 Z M 364.261719 264.542969 "/>
<path style=" stroke:none;fill-rule:nonzero;fill:rgb(90.196078%,90.196078%,90.196078%);fill-opacity:1;" d="M 55.476562 292.964844 L 242.164062 292.964844 L 242.164062 307.175781 L 55.476562 307.175781 Z M 55.476562 292.964844 "/>
<path style=" stroke:none;fill-rule:nonzero;fill:rgb(100%,100%,100%);fill-opacity:1;" d="M 226.410156 178.167969 L 167.332031 139.707031 L 167.332031 216.628906 L 226.410156 178.167969 L 167.332031 139.707031 L 167.332031 216.628906 Z M 226.410156 178.167969 "/>
<path style=" stroke:none;fill-rule:nonzero;fill:rgb(100%,72.156863%,72.156863%);fill-opacity:1;" d="M 606.703125 506.140625 L 609.128906 519.824219 L 596.996094 522.5625 L 598.816406 505.457031 Z M 606.703125 506.140625 "/>
<path style=" stroke:none;fill-rule:nonzero;fill:rgb(100%,72.156863%,72.156863%);fill-opacity:1;" d="M 656.375 503.652344 L 653.628906 519.148438 L 642.324219 519.453125 L 645.933594 500.554688 Z M 656.375 503.652344 "/>
<path style=" stroke:none;fill-rule:nonzero;fill:rgb(18.431373%,18.039216%,25.490196%);fill-opacity:1;" d="M 674.394531 344.480469 L 677.546875 368.460938 C 677.546875 368.460938 674.394531 421.753906 673.609375 424.417969 C 672.820312 427.082031 670.457031 440.40625 670.457031 440.40625 L 657.066406 504.355469 C 657.066406 504.355469 645.472656 506.132812 643.109375 499.027344 L 643.675781 460.835938 L 642.886719 417.3125 L 633.433594 367.574219 L 616.890625 435.078125 C 616.890625 435.078125 616.105469 457.28125 613.742188 465.273438 C 611.378906 473.269531 608.226562 507.90625 608.226562 507.90625 C 608.226562 507.90625 598.210938 510.574219 597.421875 507.90625 C 596.636719 505.242188 592.472656 442.183594 592.472656 432.410156 C 592.472656 422.640625 587.84375 328.964844 587.84375 328.964844 Z M 674.394531 344.480469 "/>
<path style=" stroke:none;fill-rule:nonzero;fill:rgb(18.431373%,18.039216%,25.490196%);fill-opacity:1;" d="M 645.953125 518.261719 C 647.25 518.5625 648.589844 518.5625 649.890625 518.261719 C 651.363281 517.707031 649.890625 514.378906 649.890625 514.378906 L 655.300781 514.378906 C 655.300781 514.378906 661.203125 529.355469 663.664062 530.464844 C 666.125 531.574219 673.996094 543.78125 664.648438 543.78125 C 658.878906 543.695312 653.25 541.773438 648.414062 538.234375 C 648.414062 538.234375 647.429688 533.238281 643 532.683594 C 638.574219 532.128906 635.621094 526.027344 635.621094 526.027344 L 640.425781 516.023438 C 640.707031 515.449219 641.238281 515.09375 641.820312 515.089844 C 642.402344 515.089844 642.9375 515.445312 643.21875 516.019531 C 643.886719 517.351562 644.8125 518.519531 645.953125 518.261719 Z M 645.953125 518.261719 "/>
<path style=" stroke:none;fill-rule:nonzero;fill:rgb(18.431373%,18.039216%,25.490196%);fill-opacity:1;" d="M 604.777344 516.542969 C 604.777344 516.542969 603.683594 519.019531 602.585938 517.78125 C 601.667969 516.46875 600.929688 515.007812 600.390625 513.453125 C 600.390625 513.453125 597.097656 511.59375 596.550781 513.453125 C 596 515.308594 593.804688 525.207031 592.707031 526.441406 C 591.613281 527.679688 580.089844 540.671875 591.613281 543.144531 C 603.132812 545.621094 605.328125 540.050781 605.328125 540.050781 C 605.328125 540.050781 603.683594 536.960938 606.972656 535.722656 C 610.265625 534.484375 610.8125 530.15625 610.8125 530.15625 L 609.160156 516.171875 C 609.085938 515.5625 608.695312 515.0625 608.164062 514.910156 C 607.636719 514.757812 607.078125 514.976562 606.753906 515.472656 C 606.117188 516.40625 605.40625 517.015625 604.777344 516.542969 Z M 604.777344 516.542969 "/>
<path style=" stroke:none;fill-rule:nonzero;fill:rgb(100%,72.156863%,72.156863%);fill-opacity:1;" d="M 692.511719 282.308594 L 694.875 328.492188 C 694.875 328.492188 705.902344 357.804688 690.9375 356.914062 C 675.972656 356.027344 685.421875 327.605469 685.421875 327.605469 L 670.769531 286.386719 Z M 692.511719 282.308594 "/>
<path style=" stroke:none;fill-rule:nonzero;fill:rgb(100%,72.156863%,72.156863%);fill-opacity:1;" d="M 571.207031 268.984375 L 568.84375 315.171875 C 568.84375 315.171875 557.8125 344.480469 572.78125 343.59375 C 587.746094 342.703125 578.292969 314.28125 578.292969 314.28125 L 592.949219 273.0625 Z M 571.207031 268.984375 "/>
<path style=" stroke:none;fill-rule:nonzero;fill:rgb(100%,72.156863%,72.156863%);fill-opacity:1;" d="M 654.703125 145.527344 C 654.703125 158.28125 645.535156 168.621094 634.222656 168.621094 C 622.910156 168.621094 613.742188 158.28125 613.742188 145.527344 C 613.742188 132.773438 622.910156 122.433594 634.222656 122.433594 C 645.535156 122.433594 654.703125 132.773438 654.703125 145.527344 Z M 654.703125 145.527344 "/>
<path style=" stroke:none;fill-rule:nonzero;fill:rgb(100%,72.156863%,72.156863%);fill-opacity:1;" d="M 650.371094 154.851562 C 650.371094 154.851562 644.855469 179.722656 655.882812 185.941406 C 666.914062 192.15625 621.226562 201.039062 618.074219 185.941406 L 619.648438 178.835938 C 619.648438 178.835938 625.949219 169.953125 624.375 161.957031 Z M 650.371094 154.851562 "/>
<path style=" stroke:none;fill-rule:nonzero;fill:rgb(90.196078%,90.196078%,90.196078%);fill-opacity:1;" d="M 638.160156 186.382812 C 638.160156 186.382812 624.570312 187.816406 620.335938 177.773438 C 620.335938 177.773438 588.535156 180.167969 581.445312 213.03125 C 589.671875 213.296875 599.878906 318.859375 586.394531 329.382812 C 575.449219 337.921875 605.28125 351.078125 646.824219 351.585938 L 678.335938 349.808594 C 672.460938 344.105469 658.402344 269.832031 667.304688 270.761719 C 667.304688 270.761719 690.9375 229.015625 688.574219 222.800781 C 686.210938 216.582031 682.425781 192.066406 652.023438 182.121094 C 652.023438 182.121094 651.550781 187.273438 638.160156 186.382812 Z M 638.160156 186.382812 "/>
<path style=" stroke:none;fill-rule:nonzero;fill:rgb(90.196078%,90.196078%,90.196078%);fill-opacity:1;" d="M 678.335938 207.699219 L 688.574219 222.800781 C 688.574219 222.800781 698.816406 285.859375 695.664062 286.75 C 692.511719 287.636719 673.609375 294.742188 670.457031 292.078125 C 667.304688 289.414062 653.128906 237.011719 653.128906 237.011719 Z M 678.335938 207.699219 "/>
<path style=" stroke:none;fill-rule:nonzero;fill:rgb(90.196078%,90.196078%,90.196078%);fill-opacity:1;" d="M 594.835938 203.257812 L 581.445312 213.03125 C 581.445312 213.03125 561.753906 275.203125 567.265625 277.867188 C 572.78125 280.53125 603.5 278.753906 603.5 278.753906 Z M 594.835938 203.257812 "/>
<path style=" stroke:none;fill-rule:nonzero;fill:rgb(18.431373%,18.039216%,25.490196%);fill-opacity:1;" d="M 656.609375 124.859375 C 656.609375 124.859375 649.515625 107.53125 635.917969 111.53125 C 622.320312 115.527344 614.636719 121.527344 614.046875 127.527344 C 613.453125 133.527344 614.339844 142.523438 614.339844 142.523438 C 614.339844 142.523438 615.820312 130.191406 625.277344 132.859375 C 634.734375 135.527344 649.515625 133.527344 649.515625 133.527344 L 651.878906 157.523438 C 651.878906 157.523438 654.539062 153.191406 657.496094 155.855469 C 660.453125 158.523438 666.066406 130.191406 656.609375 124.859375 Z M 656.609375 124.859375 "/>
<path style=" stroke:none;fill-rule:nonzero;fill:rgb(24.705882%,23.921569%,33.72549%);fill-opacity:1;" d="M 736.382812 543.289062 L 533.359375 543.289062 L 533.359375 541.417969 L 736.683594 541.417969 Z M 736.382812 543.289062 "/>
</g>
</svg>
