<?xml version="1.0" encoding="UTF-8"?>
<svg xmlns="http://www.w3.org/2000/svg" xmlns:xlink="http://www.w3.org/1999/xlink" width="737pt" height="544pt" viewBox="0 0 737 544" version="1.1">
<defs>
<filter id="alpha" filterUnits="objectBoundingBox" x="0%" y="0%" width="100%" height="100%">
  <feColorMatrix type="matrix" in="SourceGraphic" values="0 0 0 0 1 0 0 0 0 1 0 0 0 0 1 0 0 0 1 0"/>
</filter>
<mask id="mask0">
  <g filter="url(#alpha)">
<rect x="0" y="0" width="737" height="544" style="fill:rgb(0%,0%,0%);fill-opacity:0.101961;stroke:none;"/>
  </g>
</mask>
<clipPath id="clip1">
  <rect x="0" y="0" width="737" height="544"/>
</clipPath>
<g id="surface5" clip-path="url(#clip1)">
<path style=" stroke:none;fill-rule:nonzero;fill:rgb(42.352941%,38.823529%,100%);fill-opacity:1;" d="M 719 315.363281 C 719 315.777344 719 316.191406 719 316.597656 C 718.917969 323.722656 718.453125 330.832031 717.597656 337.921875 C 717.601562 337.964844 717.601562 338.007812 717.597656 338.050781 C 717.527344 338.640625 717.453125 339.222656 717.378906 339.8125 C 717.25 340.808594 717.117188 341.796875 716.964844 342.792969 C 715.21875 354.917969 712.328125 366.882812 708.320312 378.558594 C 702.957031 394.335938 695.371094 409.425781 685.753906 423.460938 C 682.796875 427.75 679.644531 431.902344 676.300781 435.917969 C 674.515625 438.046875 672.695312 440.125 670.8125 442.171875 C 669.492188 443.601562 668.148438 445.011719 666.777344 446.398438 L 665.925781 447.253906 C 658.71875 454.402344 650.949219 461.070312 642.683594 467.210938 C 629.1875 477.316406 614.65625 486.109375 599.894531 494.269531 C 599.054688 494.734375 598.207031 495.195312 597.359375 495.621094 C 597.300781 495.660156 597.238281 495.695312 597.171875 495.722656 C 577.109375 506.683594 556.304688 516.578125 534.867188 524.496094 C 511.402344 533.1875 487.167969 539.507812 462.308594 542.273438 C 427.65625 546.121094 392.582031 542.992188 358.136719 537.613281 C 329.492188 533.164062 301.195312 527.054688 273.417969 519.320312 L 268.84375 518.027344 C 266.472656 517.34375 264.109375 516.648438 261.742188 515.941406 C 247.464844 511.671875 233.34375 506.929688 219.382812 501.714844 C 184.320312 488.664062 150.824219 472.414062 119.417969 453.214844 C 115.421875 450.785156 111.480469 448.300781 107.597656 445.761719 C 102.167969 442.230469 96.804688 438.59375 91.507812 434.855469 L 88.238281 432.566406 C 74.371094 422.753906 61.382812 411.972656 49.386719 400.324219 C 33.25 384.457031 19.464844 366.558594 10.398438 346.128906 C 8.96875 342.917969 7.660156 339.644531 6.46875 336.3125 L 6.359375 335.980469 C 5.757812 334.285156 5.203125 332.59375 4.695312 330.832031 C 3.945312 328.308594 3.285156 325.757812 2.722656 323.175781 C 2.601562 322.679688 2.496094 322.1875 2.398438 321.683594 C 0.605469 312.992188 -0.183594 304.152344 0.0390625 295.3125 C 0.226562 287.566406 1.230469 279.851562 3.035156 272.277344 C 4.886719 264.425781 7.738281 256.792969 11.53125 249.535156 C 14.960938 243.007812 19.328125 236.917969 24.523438 231.425781 C 28.175781 227.585938 32.28125 224.121094 36.765625 221.089844 C 44.902344 215.613281 53.921875 211.800781 63.269531 208.785156 C 67.664062 207.363281 72.117188 206.117188 76.59375 204.957031 C 79.765625 204.132812 82.953125 203.347656 86.125 202.574219 L 95.480469 200.289062 C 101.476562 198.8125 107.476562 197.296875 113.382812 195.65625 C 129.488281 191.214844 145.269531 185.832031 159.867188 177.8125 C 162.175781 176.546875 164.53125 175.15625 166.886719 173.667969 C 169.886719 171.785156 172.839844 169.738281 175.761719 167.527344 C 178.71875 165.292969 181.609375 162.902344 184.371094 160.367188 C 184.796875 159.976562 185.21875 159.582031 185.636719 159.183594 C 187.886719 157.042969 190.066406 154.800781 192.09375 152.46875 C 193.082031 151.332031 194.042969 150.171875 194.957031 148.992188 C 196.222656 147.359375 197.421875 145.703125 198.53125 143.992188 C 204.097656 135.457031 207.53125 126.042969 207.125 116.117188 C 207.066406 114.480469 206.902344 112.851562 206.636719 111.230469 C 205.664062 105.25 204.726562 99.410156 204.035156 93.699219 C 201.140625 70.078125 202.363281 48.65625 221.984375 28.527344 C 246.382812 3.507812 284.671875 -1.59375 319.527344 0.40625 C 420.300781 6.164062 512.039062 58.152344 592.660156 120.046875 C 599.632812 125.394531 606.519531 130.8125 613.320312 136.304688 C 615.035156 137.6875 616.753906 139.078125 618.472656 140.476562 C 631.21875 150.851562 643.769531 161.609375 655.457031 173.132812 C 656.402344 174.066406 657.347656 175 658.277344 175.941406 C 658.847656 176.527344 659.421875 177.101562 659.984375 177.691406 C 663.628906 181.417969 667.167969 185.234375 670.59375 189.140625 C 679.78125 199.511719 687.890625 210.625 694.828125 222.335938 C 705.445312 240.714844 712.636719 260.554688 716.105469 281.050781 C 717.410156 288.492188 718.265625 295.996094 718.675781 303.523438 C 718.804688 305.738281 718.886719 307.960938 718.929688 310.175781 C 718.929688 310.886719 718.929688 311.589844 718.929688 312.300781 C 719.007812 313.332031 719.007812 314.335938 719 315.363281 Z M 719 315.363281 "/>
</g>
<mask id="mask1">
  <g filter="url(#alpha)">
<rect x="0" y="0" width="737" height="544" style="fill:rgb(0%,0%,0%);fill-opacity:0.101961;stroke:none;"/>
  </g>
</mask>
<clipPath id="clip2">
  <rect x="0" y="0" width="737" height="544"/>
</clipPath>
<g id="surface8" clip-path="url(#clip2)">
<path style=" stroke:none;fill-rule:nonzero;fill:rgb(0%,0%,0%);fill-opacity:1;" d="M 241.777344 184.628906 C 241.777344 161.429688 226.335938 142.625 207.289062 142.625 C 188.242188 142.625 172.800781 161.429688 172.800781 184.628906 C 172.800781 207.824219 188.242188 226.628906 207.289062 226.628906 C 226.335938 226.628906 241.777344 207.824219 241.777344 184.628906 Z M 241.777344 184.628906 "/>
</g>
<mask id="mask2">
  <g filter="url(#alpha)">
<rect x="0" y="0" width="737" height="544" style="fill:rgb(0%,0%,0%);fill-opacity:0.0392157;stroke:none;"/>
  </g>
</mask>
<clipPath id="clip3">
  <rect x="0" y="0" width="737" height="544"/>
</clipPath>
<g id="surface11" clip-path="url(#clip3)">
<path style=" stroke:none;fill-rule:nonzero;fill:rgb(0%,0%,0%);fill-opacity:1;" d="M 55.070312 204.085938 C 53.292969 205.792969 51.648438 207.632812 49.746094 209.234375 C 48.070312 210.578125 46.320312 211.847656 44.496094 213.027344 C 41.558594 215.015625 38.683594 217.070312 35.875 219.199219 C 32.945312 221.292969 30.292969 223.6875 27.972656 226.332031 C 23.96875 231.191406 22.074219 237.234375 18.324219 242.253906 C 15.011719 246.703125 10.339844 250.21875 6.972656 254.636719 C 5.496094 256.492188 4.398438 258.574219 3.734375 260.78125 C 3.238281 262.917969 3.011719 265.097656 3.066406 267.277344 C 3 270.855469 2.9375 274.472656 3.75 277.976562 C 4.558594 281.476562 6.335938 284.917969 9.378906 287.214844 C 12.207031 289.351562 15.855469 290.332031 19.433594 291.144531 C 21.277344 291.558594 23.273438 291.945312 25.027344 291.289062 C 26.308594 290.703125 27.425781 289.851562 28.28125 288.808594 L 37.40625 279.324219 C 43.507812 272.957031 49.851562 266.453125 58.226562 262.726562 C 60.847656 261.566406 63.617188 260.691406 66.246094 259.570312 C 77.402344 254.710938 85.292969 244.765625 88.351562 233.925781 C 89.101562 231.277344 89.578125 228.574219 90.066406 225.871094 L 91.386719 218.460938 C 91.488281 218.089844 91.488281 217.699219 91.386719 217.328125 C 91.179688 216.910156 90.847656 216.554688 90.425781 216.300781 C 84.070312 211.660156 78.121094 206.589844 72.628906 201.125 C 71.324219 199.824219 70.101562 198.042969 68.59375 196.949219 C 66.703125 195.597656 66.847656 195.699219 64.574219 196.949219 C 61.082031 198.949219 57.886719 201.347656 55.070312 204.085938 Z M 55.070312 204.085938 "/>
</g>
<mask id="mask3">
  <g filter="url(#alpha)">
<rect x="0" y="0" width="737" height="544" style="fill:rgb(0%,0%,0%);fill-opacity:0.0392157;stroke:none;"/>
  </g>
</mask>
<clipPath id="clip4">
  <rect x="0" y="0" width="737" height="544"/>
</clipPath>
<g id="surface14" clip-path="url(#clip4)">
<path style=" stroke:none;fill-rule:nonzero;fill:rgb(0%,0%,0%);fill-opacity:1;" d="M 45.128906 250.644531 C 46.722656 251.796875 48.125 253.160156 49.769531 254.257812 C 51.503906 255.347656 53.351562 256.285156 55.285156 257.054688 L 62.679688 260.265625 C 64.96875 261.34375 67.367188 262.222656 69.839844 262.894531 C 73.003906 263.660156 76.324219 263.734375 79.503906 264.445312 C 83.515625 265.339844 87.179688 267.203125 91.132812 268.28125 C 95.082031 269.359375 99.707031 269.535156 103.007812 267.292969 C 105.070312 265.890625 106.628906 263.574219 109.183594 263.226562 C 110.835938 263.03125 112.425781 263.75 113.894531 264.445312 L 133.132812 273.585938 C 135.726562 274.816406 138.46875 276.1875 139.828125 278.539062 C 141.183594 280.886719 140.269531 284.457031 137.414062 285.066406 C 136.417969 285.171875 135.417969 285.222656 134.414062 285.222656 C 133.425781 285.332031 132.34375 285.859375 132.210938 286.761719 C 132.207031 287.320312 132.367188 287.871094 132.683594 288.355469 C 133.542969 290.140625 133.800781 292.28125 132.796875 294.015625 C 131.789062 295.75 129.324219 296.828125 127.351562 296.050781 C 127.6875 298.671875 124.53125 300.507812 121.722656 301.207031 C 114.628906 302.960938 107.109375 301.882812 99.859375 300.773438 C 97.007812 300.339844 94.117188 299.890625 91.519531 298.738281 C 90.277344 298.191406 89.121094 297.484375 87.863281 296.976562 C 84.40625 295.589844 80.476562 295.773438 76.699219 295.832031 C 59.222656 296.109375 41.894531 293.183594 24.710938 290.269531 C 21.523438 289.730469 18.25 289.152344 15.527344 287.5625 C 10.277344 284.472656 8.328125 278.132812 9.191406 272.523438 C 10.054688 266.914062 13.203125 261.832031 16.300781 256.898438 L 20.3125 250.511719 C 20.835938 249.53125 21.570312 248.65625 22.46875 247.9375 C 28.371094 243.863281 40.074219 246.976562 45.128906 250.644531 Z M 45.128906 250.644531 "/>
</g>
<mask id="mask4">
  <g filter="url(#alpha)">
<rect x="0" y="0" width="737" height="544" style="fill:rgb(0%,0%,0%);fill-opacity:0.101961;stroke:none;"/>
  </g>
</mask>
<clipPath id="clip5">
  <rect x="0" y="0" width="737" height="544"/>
</clipPath>
<g id="surface17" clip-path="url(#clip5)">
<path style=" stroke:none;fill-rule:nonzero;fill:rgb(0%,0%,0%);fill-opacity:1;" d="M 252.085938 175.808594 C 250.835938 174.804688 250.527344 173.28125 249.449219 172.167969 C 247.199219 169.820312 242.65625 170.136719 238.953125 170.613281 C 232.496094 171.429688 224.707031 171.621094 220.703125 167.5625 C 218.972656 165.816406 218.207031 163.5 216.089844 162.042969 C 211.160156 158.652344 202.671875 162.121094 197.234375 159.257812 C 192.488281 156.757812 192.796875 150.957031 188.839844 147.742188 C 184.878906 144.523438 178.019531 144.941406 172.644531 146.546875 C 171.734375 146.925781 170.714844 147.03125 169.734375 146.847656 C 168.03125 146.304688 168.152344 144.394531 168.574219 142.984375 C 170.621094 136.175781 172.703125 129.300781 176.683594 123.039062 C 178.132812 120.757812 179.839844 118.554688 180.769531 116.101562 C 182.398438 111.808594 181.566406 106.949219 183.703125 102.886719 C 181.410156 104.242188 179.203125 105.71875 177.789062 107.628906 C 174.59375 111.929688 175.832031 117.402344 174.039062 122.179688 C 173.109375 124.632812 171.398438 126.832031 169.953125 129.117188 C 165.972656 135.375 163.886719 142.253906 161.839844 149.0625 C 161.421875 150.46875 161.300781 152.382812 163.003906 152.921875 C 163.980469 153.105469 165 153.003906 165.910156 152.625 C 171.285156 151.019531 178.117188 150.558594 182.105469 153.816406 C 186.09375 157.074219 185.757812 162.855469 190.503906 165.335938 C 195.9375 168.199219 204.425781 164.738281 209.359375 168.117188 C 211.472656 169.566406 212.238281 171.890625 213.96875 173.640625 C 218.003906 177.703125 225.761719 177.507812 232.21875 176.6875 C 235.921875 176.214844 240.464844 175.894531 242.714844 178.246094 C 243.792969 179.355469 244.101562 180.882812 245.355469 181.882812 C 247.601562 183.699219 251.71875 182.777344 253.917969 180.914062 C 255.324219 179.589844 256.53125 178.101562 257.5 176.484375 C 255.550781 177.019531 253.472656 176.9375 252.085938 175.808594 Z M 252.085938 175.808594 "/>
<path style=" stroke:none;fill-rule:nonzero;fill:rgb(0%,0%,0%);fill-opacity:1;" d="M 265.746094 168.355469 C 265.265625 168.917969 264.816406 169.503906 264.40625 170.109375 C 267.285156 168.253906 270.335938 166.519531 272.488281 164.15625 C 273.046875 163.542969 273.546875 162.890625 273.988281 162.203125 C 270.996094 164.140625 267.875 165.921875 265.746094 168.355469 Z M 265.746094 168.355469 "/>
</g>
<mask id="mask5">
  <g filter="url(#alpha)">
<rect x="0" y="0" width="737" height="544" style="fill:rgb(0%,0%,0%);fill-opacity:0.0509804;stroke:none;"/>
  </g>
</mask>
<clipPath id="clip6">
  <rect x="0" y="0" width="737" height="544"/>
</clipPath>
<g id="surface20" clip-path="url(#clip6)">
<path style=" stroke:none;fill-rule:nonzero;fill:rgb(0%,0%,0%);fill-opacity:1;" d="M 568.140625 175.617188 C 560.914062 178.59375 555.441406 184.355469 551.773438 190.730469 C 548.109375 197.105469 546.046875 204.105469 544.015625 211.054688 C 541.871094 218.386719 539.71875 225.734375 538.609375 233.25 C 536.628906 246.609375 538.113281 260.652344 544.90625 272.648438 C 551.699219 284.648438 564.25 294.328125 578.945312 296.640625 C 584.621094 297.539062 590.453125 297.355469 596.191406 296.820312 C 606.558594 295.832031 616.769531 293.796875 626.636719 290.757812 C 636.945312 287.609375 647.675781 282.757812 652.265625 273.824219 C 654.925781 268.640625 655.148438 262.730469 655.023438 257.027344 C 654.667969 241.480469 652.070312 226.042969 647.292969 211.101562 C 645.90625 206.765625 644.292969 202.398438 641.355469 198.746094 C 638.414062 195.09375 634.398438 192.417969 630.296875 189.9375 C 612.757812 179.269531 589.710938 166.757812 568.140625 175.617188 Z M 568.140625 175.617188 "/>
</g>
<mask id="mask6">
  <g filter="url(#alpha)">
<rect x="0" y="0" width="737" height="544" style="fill:rgb(0%,0%,0%);fill-opacity:0.101961;stroke:none;"/>
  </g>
</mask>
<clipPath id="clip7">
  <rect x="0" y="0" width="737" height="544"/>
</clipPath>
<g id="surface23" clip-path="url(#clip7)">
<path style=" stroke:none;fill-rule:nonzero;fill:rgb(0%,0%,0%);fill-opacity:1;" d="M 666.261719 382.554688 C 666.261719 383.164062 666.214844 383.773438 666.1875 384.390625 C 666.050781 387.363281 665.75 390.328125 665.28125 393.273438 C 664.65625 397.292969 663.570312 401.238281 662.03125 405.054688 C 661.015625 407.558594 659.71875 409.96875 658.164062 412.242188 C 656.785156 414.257812 655.171875 416.136719 653.351562 417.84375 C 648.851562 422.070312 642.375 423.417969 636.105469 425.199219 C 633.222656 425.957031 630.4375 426.984375 627.792969 428.269531 C 627.320312 428.507812 626.855469 428.765625 626.40625 429.035156 L 618.5625 433.730469 C 616.117188 435.1875 613.621094 436.695312 611.941406 438.859375 C 611.667969 439.226562 611.417969 439.609375 611.191406 440.003906 C 610.132812 441.992188 609.355469 444.097656 608.882812 446.261719 C 604.804688 461.613281 600.71875 476.980469 597.921875 492.558594 C 597.734375 493.589844 597.554688 494.625 597.359375 495.664062 L 597.292969 495.988281 C 597.257812 495.910156 597.21875 495.835938 597.171875 495.765625 C 577.109375 506.726562 556.304688 516.617188 534.867188 524.535156 L 530.210938 489.308594 C 529.726562 486.445312 529.566406 483.542969 529.734375 480.652344 C 530.175781 476.089844 532.230469 471.769531 532.785156 467.222656 C 533.308594 462.773438 532.378906 458.28125 530.109375 454.304688 C 529.222656 452.757812 528.113281 451.242188 527.910156 449.515625 C 527.707031 447.789062 528.8125 446.207031 530.730469 446.03125 C 532.230469 444.527344 532.347656 442.476562 531.90625 440.445312 C 531.671875 439.382812 531.320312 438.34375 530.859375 437.347656 C 529.582031 434.515625 527.972656 431.433594 529.066406 428.539062 C 529.355469 428.015625 529.484375 427.429688 529.441406 426.847656 C 529.449219 426.8125 529.449219 426.773438 529.441406 426.738281 C 529.183594 425.980469 528.1875 425.648438 527.671875 425.003906 C 526.695312 423.804688 527.671875 422.171875 528.269531 420.789062 C 528.855469 419.304688 529.191406 417.75 529.277344 416.175781 C 529.359375 415.304688 529.417969 414.421875 529.523438 413.554688 C 529.667969 412.382812 529.902344 411.21875 530.21875 410.074219 C 532.042969 403.582031 536.421875 397.917969 542.539062 394.140625 C 545.453125 392.363281 548.703125 391.070312 551.679688 389.398438 C 554.726562 387.539062 557.636719 385.503906 560.390625 383.300781 C 566.992188 378.332031 573.859375 373.648438 580.984375 369.25 C 588.648438 364.519531 596.589844 360.164062 604.765625 356.203125 C 606.515625 355.347656 608.265625 354.515625 610.015625 353.707031 C 611.921875 352.804688 613.835938 351.949219 615.765625 351.140625 C 621.945312 348.476562 628.953125 349.472656 635.785156 351.25 C 638.648438 351.988281 641.476562 352.867188 644.203125 353.667969 C 646.867188 354.449219 649.433594 355.492188 651.851562 356.769531 C 657.902344 359.980469 662.902344 364.722656 664.980469 370.710938 C 664.984375 370.75 664.984375 370.789062 664.980469 370.828125 C 666.300781 374.582031 666.382812 378.605469 666.261719 382.554688 Z M 666.261719 382.554688 "/>
</g>
<mask id="mask7">
  <g filter="url(#alpha)">
<rect x="0" y="0" width="737" height="544" style="fill:rgb(0%,0%,0%);fill-opacity:0.101961;stroke:none;"/>
  </g>
</mask>
<clipPath id="clip8">
  <rect x="0" y="0" width="737" height="544"/>
</clipPath>
<g id="surface26" clip-path="url(#clip8)">
<path style=" stroke:none;fill-rule:nonzero;fill:rgb(0%,0%,0%);fill-opacity:1;" d="M 650.980469 281.777344 C 623.863281 282.242188 596.183594 282.644531 570.300781 275.304688 C 572.773438 283.960938 572.601562 293.0625 569.808594 301.640625 L 696.605469 311.125 C 701.980469 311.523438 724.269531 313.800781 729.511719 312.65625 C 734.75 311.507812 685.539062 296.863281 687.523438 292.332031 C 692.988281 279.84375 711.296875 272.527344 698.109375 272.0625 C 681.464844 271.464844 667.753906 281.492188 650.980469 281.777344 Z M 650.980469 281.777344 "/>
</g>
<mask id="mask8">
  <g filter="url(#alpha)">
<rect x="0" y="0" width="737" height="544" style="fill:rgb(0%,0%,0%);fill-opacity:0.0705882;stroke:none;"/>
  </g>
</mask>
<clipPath id="clip9">
  <rect x="0" y="0" width="737" height="544"/>
</clipPath>
<g id="surface29" clip-path="url(#clip9)">
<path style=" stroke:none;fill-rule:nonzero;fill:rgb(0%,0%,0%);fill-opacity:1;" d="M 580.183594 261.714844 C 582.082031 262.988281 583.773438 264.503906 585.199219 266.207031 C 586.636719 267.941406 587.203125 270.136719 586.765625 272.265625 C 586.289062 268.230469 588.839844 264.398438 593.011719 262.894531 Z M 580.183594 261.714844 "/>
</g>
<mask id="mask9">
  <g filter="url(#alpha)">
<rect x="0" y="0" width="737" height="544" style="fill:rgb(0%,0%,0%);fill-opacity:0.101961;stroke:none;"/>
  </g>
</mask>
<clipPath id="clip10">
  <rect x="0" y="0" width="737" height="544"/>
</clipPath>
<g id="surface32" clip-path="url(#clip10)">
<path style=" stroke:none;fill-rule:nonzero;fill:rgb(0%,0%,0%);fill-opacity:1;" d="M 621.765625 84.058594 C 620.882812 81.941406 619.867188 79.871094 618.71875 77.859375 C 617.980469 77.988281 617.25 78.160156 616.53125 78.367188 C 617.816406 80.300781 618.976562 82.296875 620.003906 84.351562 C 620.578125 84.214844 621.164062 84.121094 621.765625 84.058594 Z M 621.765625 84.058594 "/>
<path style=" stroke:none;fill-rule:nonzero;fill:rgb(0%,0%,0%);fill-opacity:1;" d="M 665.265625 110.769531 C 665.464844 110.921875 665.660156 111.089844 665.855469 111.246094 C 665.84375 111.203125 665.824219 111.160156 665.804688 111.117188 C 665.632812 111.003906 665.453125 110.890625 665.265625 110.769531 Z M 665.265625 110.769531 "/>
<path style=" stroke:none;fill-rule:nonzero;fill:rgb(0%,0%,0%);fill-opacity:1;" d="M 595.566406 113.753906 C 595.957031 113.472656 596.316406 113.183594 596.738281 112.914062 L 596.617188 109.695312 L 588.609375 109.621094 C 587.3125 110.695312 585.933594 112.242188 586.699219 113.683594 Z M 595.566406 113.753906 "/>
<path style=" stroke:none;fill-rule:nonzero;fill:rgb(0%,0%,0%);fill-opacity:1;" d="M 683.109375 167.921875 C 681.683594 170.320312 679.628906 172.570312 676.816406 173.539062 C 674.652344 174.285156 672.265625 174.214844 669.949219 174.121094 C 662.046875 173.828125 654.011719 173.511719 646.542969 171.148438 C 643.050781 170.035156 639.707031 168.484375 636.046875 167.800781 C 631.765625 167 627.335938 167.453125 622.992188 167.914062 L 603.859375 169.949219 C 598.214844 170.542969 591.925781 170.992188 587.417969 167.859375 C 584.839844 166.074219 583.175781 163.289062 580.347656 161.851562 C 579.15625 161.242188 577.738281 160.847656 576.964844 159.820312 C 576.480469 159.054688 576.222656 158.1875 576.21875 157.304688 C 576.15625 156.59375 576.121094 155.882812 576.089844 155.171875 C 576.007812 157.238281 576.050781 159.308594 576.21875 161.371094 C 576.222656 162.253906 576.480469 163.121094 576.964844 163.882812 C 577.714844 164.90625 579.15625 165.300781 580.347656 165.917969 C 583.175781 167.351562 584.847656 170.136719 587.417969 171.925781 C 591.917969 175.054688 598.214844 174.636719 603.859375 174.011719 L 622.992188 171.980469 C 627.335938 171.519531 631.765625 171.066406 636.046875 171.863281 C 639.675781 172.542969 643.019531 174.101562 646.542969 175.210938 C 654.039062 177.574219 662.046875 177.921875 669.949219 178.183594 C 672.265625 178.273438 674.652344 178.347656 676.816406 177.601562 C 679.628906 176.632812 681.683594 174.386719 683.109375 171.988281 C 685.867188 167.347656 686.640625 162.082031 686.347656 156.777344 C 686.1875 160.664062 685.082031 164.46875 683.109375 167.921875 Z M 683.109375 167.921875 "/>
</g>
<mask id="mask10">
  <g filter="url(#alpha)">
<rect x="0" y="0" width="737" height="544" style="fill:rgb(0%,0%,0%);fill-opacity:0.101961;stroke:none;"/>
  </g>
</mask>
<clipPath id="clip11">
  <rect x="0" y="0" width="737" height="544"/>
</clipPath>
<g id="surface35" clip-path="url(#clip11)">
<path style=" stroke:none;fill-rule:nonzero;fill:rgb(0%,0%,0%);fill-opacity:1;" d="M 621.546875 88.414062 L 632.042969 97.222656 C 632.042969 97.222656 623.046875 93.835938 621.546875 88.414062 Z M 621.546875 88.414062 "/>
</g>
</defs>
<g id="surface1">
<use xlink:href="#surface5" mask="url(#mask0)"/>
<path style=" stroke:none;fill-rule:nonzero;fill:rgb(24.705882%,23.921569%,33.72549%);fill-opacity:1;" d="M 295.386719 304.003906 L 283.390625 496.9375 L 295.386719 497.078125 L 305.132812 301.292969 Z M 295.386719 304.003906 "/>
<path style=" stroke:none;fill-rule:nonzero;fill:rgb(42.352941%,38.823529%,100%);fill-opacity:1;" d="M 102.699219 401.753906 L 251.148438 401.753906 L 251.148438 430.882812 L 102.699219 430.882812 Z M 102.699219 401.753906 "/>
<path style=" stroke:none;fill-rule:nonzero;fill:rgb(24.705882%,23.921569%,33.72549%);fill-opacity:1;" d="M 260.898438 427.492188 L 260.898438 445.78125 L 107.550781 445.78125 C 102.121094 442.25 96.757812 438.613281 91.460938 434.875 L 91.460938 427.492188 Z M 260.898438 427.492188 "/>
<path style=" stroke:none;fill-rule:nonzero;fill:rgb(20.784314%,19.607843%,24.313725%);fill-opacity:1;" d="M 291.515625 385.859375 C 291.097656 387.617188 290.550781 389.347656 289.972656 391.078125 C 288.269531 396.070312 286.222656 400.996094 285.824219 406.183594 C 285.292969 413.039062 287.324219 421.015625 282.078125 425.992188 C 280.726562 427.28125 278.964844 428.242188 277.757812 429.617188 C 277.574219 429.832031 277.402344 430.058594 277.25 430.296875 C 276.167969 431.90625 276.042969 433.871094 276.027344 435.714844 C 276.039062 439.644531 276.320312 443.570312 276.875 447.46875 C 278.652344 460.882812 282.160156 474.324219 277.546875 486.984375 C 276.710938 489.179688 275.738281 491.332031 274.632812 493.425781 C 272.382812 497.898438 269.929688 502.308594 269.195312 507.152344 C 268.65625 510.742188 268.820312 514.441406 268.792969 518.09375 C 266.421875 517.410156 264.054688 516.714844 261.691406 516.007812 C 247.410156 511.738281 233.289062 506.996094 219.332031 501.78125 C 219.367188 501.597656 219.40625 501.40625 219.4375 501.226562 C 220.507812 495.195312 219.039062 489.03125 217.253906 483.152344 C 213.503906 470.691406 208.195312 458.355469 205.054688 445.808594 C 203.789062 440.910156 202.960938 435.925781 202.574219 430.90625 C 202.484375 429.78125 202.429688 428.648438 202.425781 427.519531 C 202.386719 426.039062 202.425781 424.5625 202.492188 423.074219 C 202.648438 420.097656 202.792969 416.570312 200.160156 414.761719 C 198.710938 413.777344 196.800781 413.609375 195.113281 413.011719 C 191.859375 411.867188 189.632812 409.210938 187.054688 407.085938 C 184.554688 404.894531 181.027344 403.957031 177.613281 404.578125 C 160.761719 408.066406 148.375 420.988281 132.691406 427.519531 C 132.082031 427.773438 131.476562 428.019531 130.859375 428.25 C 128.832031 428.921875 126.902344 429.8125 125.109375 430.90625 C 123.851562 431.695312 122.9375 432.855469 122.53125 434.191406 C 122.132812 435.625 122.476562 437.128906 122.671875 438.609375 C 122.988281 441.007812 122.875 443.441406 122.335938 445.808594 C 122.132812 446.726562 121.863281 447.632812 121.535156 448.519531 C 120.933594 450.125 120.132812 451.695312 119.367188 453.261719 C 115.367188 450.832031 111.425781 448.347656 107.542969 445.808594 C 102.117188 442.277344 96.753906 438.640625 91.453125 434.902344 L 88.238281 432.566406 C 74.371094 422.753906 61.382812 411.972656 49.386719 400.324219 C 50.984375 396.257812 53.292969 392.480469 54.402344 388.3125 C 55.03125 385.921875 55.265625 383.433594 56.132812 381.113281 C 57.136719 378.703125 58.53125 376.441406 60.273438 374.40625 C 66.648438 366.371094 74.433594 359.332031 83.320312 353.566406 C 92.609375 347.550781 103.335938 342.726562 111.695312 335.898438 C 115.089844 333.214844 118.015625 330.082031 120.371094 326.609375 C 120.515625 326.398438 120.648438 326.175781 120.769531 325.933594 C 121.421875 324.707031 121.875 323.402344 122.109375 322.058594 C 122.710938 319.023438 122.621094 315.6875 122.921875 312.777344 C 133.105469 314.371094 143.488281 314.652344 153.757812 313.617188 C 165.714844 312.402344 177.414062 309.402344 189.371094 308.238281 C 190.269531 308.140625 191.175781 308.066406 192.085938 308 C 195.917969 307.722656 199.753906 307.660156 203.601562 307.703125 C 206.816406 307.703125 210.035156 307.832031 213.25 307.925781 L 248.660156 309.007812 C 252.582031 309.132812 256.585938 309.265625 260.238281 310.5625 C 264.570312 312.097656 268.042969 315.160156 270.824219 318.527344 C 271.175781 318.960938 271.527344 319.394531 271.859375 319.84375 C 274.148438 322.859375 275.980469 326.136719 277.316406 329.589844 C 277.457031 329.941406 277.59375 330.269531 277.722656 330.65625 C 278.058594 331.597656 278.351562 332.542969 278.613281 333.507812 C 278.816406 334.257812 278.996094 335.011719 279.160156 335.769531 C 279.984375 339.523438 280.472656 343.355469 281.777344 346.980469 C 281.867188 347.246094 281.964844 347.507812 282.070312 347.765625 C 283.636719 351.738281 286.238281 355.292969 288.203125 359.109375 C 289.617188 361.867188 290.699219 364.761719 291.425781 367.730469 C 292.894531 373.699219 292.925781 379.882812 291.515625 385.859375 Z M 291.515625 385.859375 "/>
<path style=" stroke:none;fill-rule:nonzero;fill:rgb(42.352941%,38.823529%,100%);fill-opacity:1;" d="M 183.882812 143.417969 C 180.71875 141.140625 176.128906 142.808594 172.425781 144.277344 C 169.320312 145.519531 166.125 146.5625 162.859375 147.402344 C 162.191406 147.632812 161.46875 147.703125 160.761719 147.597656 C 159.261719 147.273438 158.632812 145.667969 157.515625 144.691406 C 155.570312 143.003906 152.394531 143.40625 149.890625 144.320312 C 147.386719 145.234375 144.910156 146.554688 142.226562 146.351562 C 139.363281 146.148438 136.875 144.238281 133.980469 144.175781 C 128.882812 144.070312 124.601562 149.746094 119.78125 148.242188 C 116.839844 147.328125 114.53125 143.871094 111.636719 144.855469 C 109.386719 145.625 109.183594 148.4375 107.828125 150.273438 C 106.230469 152.414062 103.121094 153.019531 100.457031 153.964844 C 92.070312 156.960938 86.511719 165.410156 87.609375 173.496094 C 88.214844 177.960938 90.605469 182.054688 92.1875 186.316406 C 96.882812 198.707031 95.269531 212.683594 101.1875 224.632812 C 101.933594 223.996094 102.355469 223.757812 103.082031 223.128906 C 101.210938 226.632812 100.851562 230.640625 102.070312 234.375 C 102.691406 236.25 103.703125 238 104.46875 239.835938 C 105.265625 241.894531 105.90625 244 106.390625 246.132812 L 112.910156 272.136719 C 115.460938 282.296875 118.015625 292.460938 118.460938 302.863281 C 118.734375 309.632812 118.160156 316.402344 116.75 323.054688 C 128.566406 321.285156 139.378906 316.550781 151.351562 316.609375 C 155.746094 316.609375 160.101562 317.289062 164.457031 317.832031 C 177.15625 319.4375 189.96875 320.222656 202.792969 320.179688 C 204.785156 320.285156 206.78125 320.03125 208.667969 319.4375 C 210.320312 318.800781 211.667969 317.667969 213.226562 316.847656 C 216.277344 315.222656 219.976562 314.816406 223.492188 314.816406 C 239.527344 314.550781 254.980469 319.855469 270.914062 321.726562 C 277.203125 309.796875 277.578125 295.5 272.75 283.027344 C 271.316406 279.324219 269.390625 275.710938 268.820312 271.816406 C 268.59375 269.421875 268.53125 267.015625 268.640625 264.617188 C 268.617188 258.46875 267.390625 252.371094 265.019531 246.609375 C 264.089844 244.351562 262.972656 242.054688 263.070312 239.652344 C 263.167969 237.246094 264.480469 235.003906 265.769531 232.875 C 268.386719 228.539062 271.019531 224.164062 274.714844 220.507812 C 278.5 216.726562 283.238281 213.847656 287.925781 211.023438 L 299.492188 204.003906 C 297.910156 194.972656 295.871094 185.460938 291.636719 177.15625 C 287.398438 168.851562 281.066406 161.214844 272.496094 156.359375 C 269.605469 154.789062 266.582031 153.429688 263.453125 152.292969 C 259.074219 150.625 254.515625 149.15625 249.769531 148.90625 C 244.371094 148.628906 239.054688 149.933594 233.726562 150.75 C 216.945312 153.300781 197.199219 152.992188 183.882812 143.417969 Z M 183.882812 143.417969 "/>
<path style=" stroke:none;fill-rule:nonzero;fill:rgb(24.705882%,23.921569%,33.72549%);fill-opacity:1;" d="M 310.378906 300.128906 L 304.875 306.40625 L 294.5 318.242188 L 282.503906 331.921875 L 279.152344 335.742188 L 272.652344 335.742188 L 111.691406 335.910156 L 10.886719 336.011719 L 6.386719 336.011719 C 5.789062 334.320312 5.234375 332.625 4.722656 330.863281 C 3.972656 328.34375 3.316406 325.792969 2.75 323.210938 C 2.632812 322.714844 2.527344 322.21875 2.429688 321.71875 L 39 300.113281 L 52.753906 300.046875 L 94.8125 299.828125 L 118.300781 299.707031 L 125.28125 299.707031 L 140.9375 299.632812 L 260.25 299.015625 L 266.355469 298.984375 L 269 298.984375 L 276.011719 298.949219 L 302.09375 298.8125 L 307.101562 297.09375 L 307.46875 297.445312 Z M 310.378906 300.128906 "/>
<path style=" stroke:none;fill-rule:nonzero;fill:rgb(31.372549%,30.980392%,37.647059%);fill-opacity:1;" d="M 308.128906 296.742188 L 307.507812 297.417969 L 303.414062 301.773438 L 294.988281 310.765625 L 277.316406 329.589844 L 120.769531 325.980469 L 2.722656 323.269531 C 2.601562 322.777344 2.496094 322.28125 2.398438 321.78125 C 0.605469 313.085938 -0.183594 304.246094 0.0390625 295.40625 L 13.128906 289.351562 L 16.128906 287.953125 L 39.464844 277.113281 L 59.949219 267.628906 L 113.375 273.902344 L 125.207031 275.292969 L 130.5625 275.914062 L 138.394531 276.835938 L 139.054688 276.917969 L 261.917969 291.3125 L 275.492188 292.90625 L 283.464844 293.839844 L 308.027344 296.726562 Z M 308.128906 296.742188 "/>
<path style=" stroke:none;fill-rule:nonzero;fill:rgb(24.705882%,23.921569%,33.72549%);fill-opacity:1;" d="M 282.640625 329.257812 L 282.511719 331.921875 L 281.761719 346.953125 L 277.726562 429.605469 L 276.875 447.46875 L 274.625 493.425781 L 273.355469 519.386719 L 268.785156 518.09375 C 266.414062 517.410156 264.046875 516.714844 261.683594 516.007812 L 272.652344 335.804688 L 272.886719 332.023438 L 277.714844 330.667969 Z M 282.640625 329.257812 "/>
<path style=" stroke:none;fill-rule:nonzero;fill:rgb(24.705882%,23.921569%,33.72549%);fill-opacity:1;" d="M 11.230469 329.0625 L 10.894531 336.019531 L 10.398438 346.183594 C 8.96875 342.96875 7.660156 339.699219 6.46875 336.367188 L 6.359375 336.035156 C 5.757812 334.339844 5.203125 332.644531 4.695312 330.886719 Z M 11.230469 329.0625 "/>
<path style=" stroke:none;fill-rule:nonzero;fill:rgb(63.137255%,38.039216%,41.568627%);fill-opacity:1;" d="M 241.777344 184.628906 C 241.777344 161.429688 226.335938 142.625 207.289062 142.625 C 188.242188 142.625 172.800781 161.429688 172.800781 184.628906 C 172.800781 207.824219 188.242188 226.628906 207.289062 226.628906 C 226.335938 226.628906 241.777344 207.824219 241.777344 184.628906 Z M 241.777344 184.628906 "/>
<use xlink:href="#surface8" mask="url(#mask1)"/>
<path style=" stroke:none;fill-rule:nonzero;fill:rgb(63.137255%,38.039216%,41.568627%);fill-opacity:1;" d="M 260.148438 159.222656 C 260.148438 183.167969 238.664062 202.582031 212.164062 202.582031 C 185.664062 202.582031 164.179688 183.167969 164.179688 159.222656 C 164.179688 135.277344 185.664062 115.867188 212.164062 115.867188 C 238.664062 115.867188 260.148438 135.277344 260.148438 159.222656 Z M 260.148438 159.222656 "/>
<path style=" stroke:none;fill-rule:nonzero;fill:rgb(27.45098%,26.27451%,32.54902%);fill-opacity:1;" d="M 213.113281 92.398438 C 210.1875 92.609375 207.277344 93.011719 204.410156 93.597656 C 196.824219 95.265625 190.261719 98.964844 183.875 102.59375 C 181.011719 104.226562 178.066406 105.925781 176.289062 108.324219 C 173.09375 112.628906 174.332031 118.101562 172.539062 122.878906 C 171.609375 125.328125 169.898438 127.53125 168.453125 129.816406 C 164.472656 136.074219 162.386719 142.949219 160.339844 149.757812 C 159.921875 151.167969 159.800781 153.078125 161.503906 153.621094 C 162.484375 153.804688 163.503906 153.699219 164.410156 153.324219 C 169.789062 151.71875 176.617188 151.257812 180.605469 154.515625 C 184.59375 157.773438 184.257812 163.550781 189.003906 166.03125 C 194.4375 168.898438 202.925781 165.4375 207.859375 168.816406 C 209.972656 170.265625 210.738281 172.589844 212.46875 174.335938 C 216.503906 178.402344 224.265625 178.207031 230.71875 177.386719 C 234.421875 176.910156 238.964844 176.59375 241.214844 178.945312 C 242.296875 180.054688 242.601562 181.578125 243.855469 182.582031 C 246.105469 184.398438 250.21875 183.476562 252.417969 181.613281 C 254.613281 179.75 255.664062 177.230469 257.492188 175.136719 C 261.054688 171.070312 267.3125 168.855469 270.988281 164.839844 C 274.0625 161.453125 274.992188 157.210938 275.832031 153.121094 L 278.957031 137.949219 C 280.226562 131.800781 281.378906 125.078125 277.546875 119.660156 C 276.183594 117.707031 274.226562 116.027344 273.050781 114.007812 C 272.261719 112.65625 271.820312 111.226562 270.90625 109.945312 C 269.820312 108.609375 268.523438 107.429688 267.058594 106.4375 L 259.660156 100.902344 C 257.128906 98.898438 254.425781 97.085938 251.570312 95.480469 C 241.003906 89.917969 225.1875 91.382812 213.113281 92.398438 Z M 213.113281 92.398438 "/>
<path style=" stroke:none;fill-rule:nonzero;fill:rgb(63.137255%,38.039216%,41.568627%);fill-opacity:1;" d="M 55.070312 204.085938 C 53.292969 205.792969 51.648438 207.632812 49.746094 209.234375 C 48.070312 210.578125 46.320312 211.847656 44.496094 213.027344 C 41.558594 215.015625 38.683594 217.070312 35.875 219.199219 C 32.945312 221.292969 30.292969 223.6875 27.972656 226.332031 C 23.96875 231.191406 22.074219 237.234375 18.324219 242.253906 C 15.011719 246.703125 10.339844 250.21875 6.972656 254.636719 C 5.496094 256.492188 4.398438 258.574219 3.734375 260.78125 C 3.238281 262.917969 3.011719 265.097656 3.066406 267.277344 C 3 270.855469 2.9375 274.472656 3.75 277.976562 C 4.558594 281.476562 6.335938 284.917969 9.378906 287.214844 C 12.207031 289.351562 15.855469 290.332031 19.433594 291.144531 C 21.277344 291.558594 23.273438 291.945312 25.027344 291.289062 C 26.308594 290.703125 27.425781 289.851562 28.28125 288.808594 L 37.40625 279.324219 C 43.507812 272.957031 49.851562 266.453125 58.226562 262.726562 C 60.847656 261.566406 63.617188 260.691406 66.246094 259.570312 C 77.402344 254.710938 85.292969 244.765625 88.351562 233.925781 C 89.101562 231.277344 89.578125 228.574219 90.066406 225.871094 L 91.386719 218.460938 C 91.488281 218.089844 91.488281 217.699219 91.386719 217.328125 C 91.179688 216.910156 90.847656 216.554688 90.425781 216.300781 C 84.070312 211.660156 78.121094 206.589844 72.628906 201.125 C 71.324219 199.824219 70.101562 198.042969 68.59375 196.949219 C 66.703125 195.597656 66.847656 195.699219 64.574219 196.949219 C 61.082031 198.949219 57.886719 201.347656 55.070312 204.085938 Z M 55.070312 204.085938 "/>
<path style=" stroke:none;fill-rule:nonzero;fill:rgb(24.705882%,23.921569%,33.72549%);fill-opacity:1;" d="M 117.484375 253.402344 C 117.277344 252.976562 116.828125 252.683594 116.3125 252.644531 C 115.796875 252.605469 115.300781 252.820312 115.015625 253.210938 C 114.730469 253.601562 114.707031 254.101562 114.949219 254.515625 L 114.203125 254.847656 L 136.558594 296.253906 L 140.601562 294.472656 L 118.242188 253.039062 Z M 117.484375 253.402344 "/>
<use xlink:href="#surface11" mask="url(#mask2)"/>
<path style=" stroke:none;fill-rule:nonzero;fill:rgb(63.137255%,38.039216%,41.568627%);fill-opacity:1;" d="M 313.535156 280.394531 C 313.460938 284.714844 313.273438 289.167969 311.285156 293.109375 C 310.433594 294.816406 309.105469 296.496094 307.117188 297.058594 C 305.914062 297.308594 304.671875 297.351562 303.453125 297.179688 C 288.742188 296.011719 273.921875 297.074219 259.597656 300.324219 C 263.421875 293.414062 261.226562 285.128906 262.285156 277.460938 C 262.574219 275.367188 263.109375 273.308594 263.3125 271.207031 C 264.058594 263.753906 260.527344 256.519531 258.910156 249.164062 C 257.503906 242.792969 257.503906 236.238281 258.910156 229.867188 C 259.183594 228.230469 259.808594 226.652344 260.746094 225.226562 C 261.84375 223.839844 263.289062 222.707031 264.960938 221.914062 C 271.03125 218.792969 278.191406 218.433594 285.015625 218.847656 C 289.613281 219.125 298.824219 218.730469 302.65625 221.285156 C 306.847656 224.082031 308.175781 233.480469 309.308594 237.820312 C 311.003906 244.480469 312.15625 251.246094 312.757812 258.058594 C 313.492188 265.484375 313.648438 272.941406 313.535156 280.394531 Z M 313.535156 280.394531 "/>
<path style=" stroke:none;fill-rule:nonzero;fill:rgb(100%,100%,100%);fill-opacity:1;" d="M 44.96875 295.394531 L 71.960938 311.652344 L 193.417969 307.585938 L 113.195312 295.394531 Z M 44.96875 295.394531 "/>
<path style=" stroke:none;fill-rule:nonzero;fill:rgb(42.352941%,38.823529%,100%);fill-opacity:1;" d="M 80.558594 166.207031 C 76.128906 169.738281 72.371094 173.898438 68.175781 177.65625 C 62.417969 182.820312 55.871094 187.210938 49.355469 191.578125 C 54.109375 192.777344 57.8125 196.148438 59.101562 200.453125 C 59.386719 201.449219 59.53125 202.484375 59.851562 203.460938 C 60.601562 205.773438 62.25 207.761719 64.019531 209.558594 C 71.625 217.300781 82.261719 223.035156 86.746094 232.59375 C 86.890625 233.058594 87.210938 233.464844 87.644531 233.742188 C 88.011719 233.890625 88.414062 233.933594 88.808594 233.867188 C 92.863281 233.480469 95.96875 230.527344 98.554688 227.652344 C 103.953125 221.554688 108.636719 214.824219 111.300781 207.382812 C 113.960938 199.945312 114.390625 191.722656 111.488281 184.351562 C 110.039062 180.679688 107.804688 177.304688 105.585938 173.964844 C 103.640625 171.042969 101.703125 168.125 99.769531 165.210938 C 98.757812 163.675781 97.46875 160.550781 95.480469 159.792969 C 91.191406 158.125 83.3125 163.722656 80.558594 166.207031 Z M 80.558594 166.207031 "/>
<path style=" stroke:none;fill-rule:nonzero;fill:rgb(42.352941%,38.823529%,100%);fill-opacity:1;" d="M 301.390625 209.992188 L 307.769531 223.542969 C 293.679688 219.09375 278.078125 221.046875 265.859375 228.792969 C 262.222656 231.140625 258.886719 234.097656 257.246094 237.847656 C 255.589844 238.132812 253.902344 237.535156 252.902344 236.3125 C 251.945312 235.09375 251.386719 233.65625 251.300781 232.164062 C 250.707031 226.960938 252.890625 221.859375 255.046875 216.996094 C 256.054688 214.722656 257.085938 212.398438 258.871094 210.546875 C 260.65625 208.699219 263.027344 207.480469 265.394531 206.328125 C 272.953125 202.550781 280.871094 199.390625 289.050781 196.882812 C 292.5 195.875 296.113281 195.894531 298.046875 198.808594 C 300.289062 202.28125 299.636719 206.292969 301.390625 209.992188 Z M 301.390625 209.992188 "/>
<path style=" stroke:none;fill-rule:nonzero;fill:rgb(63.137255%,38.039216%,41.568627%);fill-opacity:1;" d="M 45.128906 250.644531 C 46.722656 251.796875 48.125 253.160156 49.769531 254.257812 C 51.503906 255.347656 53.351562 256.285156 55.285156 257.054688 L 62.679688 260.265625 C 64.96875 261.34375 67.367188 262.222656 69.839844 262.894531 C 73.003906 263.660156 76.324219 263.734375 79.503906 264.445312 C 83.515625 265.339844 87.179688 267.203125 91.132812 268.28125 C 95.082031 269.359375 99.707031 269.535156 103.007812 267.292969 C 105.070312 265.890625 106.628906 263.574219 109.183594 263.226562 C 110.835938 263.03125 112.425781 263.75 113.894531 264.445312 L 133.132812 273.585938 C 135.726562 274.816406 138.46875 276.1875 139.828125 278.539062 C 141.183594 280.886719 140.269531 284.457031 137.414062 285.066406 C 136.417969 285.171875 135.417969 285.222656 134.414062 285.222656 C 133.425781 285.332031 132.34375 285.859375 132.210938 286.761719 C 132.207031 287.320312 132.367188 287.871094 132.683594 288.355469 C 133.542969 290.140625 133.800781 292.28125 132.796875 294.015625 C 131.789062 295.75 129.324219 296.828125 127.351562 296.050781 C 127.6875 298.671875 124.53125 300.507812 121.722656 301.207031 C 114.628906 302.960938 107.109375 301.882812 99.859375 300.773438 C 97.007812 300.339844 94.117188 299.890625 91.519531 298.738281 C 90.277344 298.191406 89.121094 297.484375 87.863281 296.976562 C 84.40625 295.589844 80.476562 295.773438 76.699219 295.832031 C 59.222656 296.109375 41.894531 293.183594 24.710938 290.269531 C 21.523438 289.730469 18.25 289.152344 15.527344 287.5625 C 10.277344 284.472656 8.328125 278.132812 9.191406 272.523438 C 10.054688 266.914062 13.203125 261.832031 16.300781 256.898438 L 20.3125 250.511719 C 20.835938 249.53125 21.570312 248.65625 22.46875 247.9375 C 28.371094 243.863281 40.074219 246.976562 45.128906 250.644531 Z M 45.128906 250.644531 "/>
<use xlink:href="#surface14" mask="url(#mask3)"/>
<path style=" stroke:none;fill-rule:nonzero;fill:rgb(63.137255%,38.039216%,41.568627%);fill-opacity:1;" d="M 273.996094 262.351562 C 270.089844 264.019531 265.605469 264.183594 261.527344 265.460938 C 257.449219 266.742188 253.984375 269.046875 250.242188 270.921875 C 240.496094 275.839844 229.25 277.699219 218.207031 279.464844 C 211.511719 280.550781 204.710938 281.632812 197.960938 281.375 C 188.832031 281.023438 180.058594 278.273438 171.210938 276.199219 C 162.363281 274.128906 152.925781 272.730469 144.160156 275.0625 C 134.878906 277.617188 127.5 284.015625 124.292969 292.289062 C 122.457031 297.160156 122.199219 302.410156 122.554688 307.546875 C 124.398438 308.773438 126.976562 307.070312 127.980469 305.210938 C 128.984375 303.347656 129.535156 301.0625 131.484375 299.980469 C 134.863281 301.015625 135.6875 305.085938 138.476562 307.097656 C 140.21875 308.359375 142.542969 308.691406 144.753906 308.976562 L 156.148438 310.4375 C 158.894531 310.792969 162.078125 311.027344 164.066406 309.28125 C 165.035156 308.433594 165.566406 307.25 166.449219 306.339844 C 168.265625 304.523438 171.292969 304.214844 173.992188 304.457031 C 182.421875 305.214844 190.324219 310.15625 198.691406 308.984375 C 201.570312 308.582031 204.246094 307.472656 206.988281 306.597656 C 223.25 301.410156 241.320312 304.566406 258.242188 301.589844 C 264.699219 300.460938 270.914062 298.453125 277.054688 296.339844 C 280.390625 295.195312 283.765625 293.996094 286.613281 292.058594 C 292.097656 288.246094 295.035156 282.15625 294.378906 275.929688 C 293.753906 271.261719 291.175781 266.988281 287.175781 263.980469 C 285.855469 262.960938 284.125 261.019531 282.542969 260.382812 C 279.519531 259.183594 276.558594 261.261719 273.996094 262.351562 Z M 273.996094 262.351562 "/>
<use xlink:href="#surface17" mask="url(#mask4)"/>
<path style=" stroke:none;fill-rule:nonzero;fill:rgb(24.705882%,23.921569%,33.72549%);fill-opacity:1;" d="M 417.21875 302.507812 L 419.46875 496.9375 L 429.964844 495.582031 L 427.714844 302.507812 Z M 417.21875 302.507812 "/>
<path style=" stroke:none;fill-rule:nonzero;fill:rgb(24.705882%,23.921569%,33.72549%);fill-opacity:1;" d="M 480.195312 337.734375 L 482.445312 532.164062 L 492.941406 530.808594 L 490.695312 337.734375 Z M 480.195312 337.734375 "/>
<path style=" stroke:none;fill-rule:nonzero;fill:rgb(24.705882%,23.921569%,33.72549%);fill-opacity:1;" d="M 676.277344 435.953125 L 676.234375 432.21875 L 676.234375 429.996094 L 675.835938 395.800781 L 675.214844 342.332031 L 675.109375 337.71875 L 664.613281 337.71875 L 664.664062 342.164062 L 664.996094 370.800781 L 665.136719 383.199219 L 665.257812 393.238281 L 665.453125 410.59375 L 665.570312 420.832031 L 665.570312 421.914062 L 665.730469 435.371094 L 665.863281 447.230469 L 666.71875 446.378906 C 668.09375 444.992188 669.4375 443.582031 670.753906 442.152344 Z M 676.277344 435.953125 "/>
<path style=" stroke:none;fill-rule:nonzero;fill:rgb(42.352941%,38.823529%,100%);fill-opacity:1;" d="M 468.574219 369.234375 L 462.578125 377.339844 L 468.574219 414.253906 L 519.558594 426.859375 L 602.03125 426.859375 L 651.515625 429.5625 L 675.085938 414.984375 L 671.007812 389.945312 L 653.011719 369.234375 Z M 468.574219 369.234375 "/>
<path style=" stroke:none;fill-rule:nonzero;fill:rgb(24.705882%,23.921569%,33.72549%);fill-opacity:1;" d="M 462.578125 377.339844 L 459.578125 399.84375 C 459.578125 399.84375 443.835938 443.964844 570.542969 441.261719 C 697.25 438.558594 675.507812 429.558594 675.507812 429.558594 L 674.757812 403.449219 C 674.757812 403.449219 679.171875 415.804688 614.777344 414.132812 C 550.378906 412.457031 490.320312 407.050781 490.320312 407.050781 C 490.320312 407.050781 467.828125 410.648438 462.578125 377.339844 Z M 462.578125 377.339844 "/>
<path style=" stroke:none;fill-rule:nonzero;fill:rgb(98.431373%,74.509804%,74.509804%);fill-opacity:1;" d="M 568.140625 175.617188 C 560.914062 178.59375 555.441406 184.355469 551.773438 190.730469 C 548.109375 197.105469 546.046875 204.105469 544.015625 211.054688 C 541.871094 218.386719 539.71875 225.734375 538.609375 233.25 C 536.628906 246.609375 538.113281 260.652344 544.90625 272.648438 C 551.699219 284.648438 564.25 294.328125 578.945312 296.640625 C 584.621094 297.539062 590.453125 297.355469 596.191406 296.820312 C 606.558594 295.832031 616.769531 293.796875 626.636719 290.757812 C 636.945312 287.609375 647.675781 282.757812 652.265625 273.824219 C 654.925781 268.640625 655.148438 262.730469 655.023438 257.027344 C 654.667969 241.480469 652.070312 226.042969 647.292969 211.101562 C 645.90625 206.765625 644.292969 202.398438 641.355469 198.746094 C 638.414062 195.09375 634.398438 192.417969 630.296875 189.9375 C 612.757812 179.269531 589.710938 166.757812 568.140625 175.617188 Z M 568.140625 175.617188 "/>
<use xlink:href="#surface20" mask="url(#mask5)"/>
<path style=" stroke:none;fill-rule:nonzero;fill:rgb(42.352941%,38.823529%,100%);fill-opacity:1;" d="M 560.023438 260.890625 C 562.113281 263.488281 564.644531 265.773438 567.519531 267.664062 C 574.65625 272.121094 583.820312 272.726562 592.488281 272.96875 C 599.445312 273.160156 607.421875 272.800781 611.785156 267.894531 C 613.75 265.6875 614.632812 262.867188 615.429688 260.125 C 620.332031 243.277344 623.816406 226.117188 625.851562 208.792969 L 645.703125 208.855469 C 654.296875 242.097656 653.589844 276.652344 652.839844 310.792969 L 651.753906 360.570312 L 638.964844 359.34375 C 608.589844 356.4375 578.175781 353.53125 547.636719 353.03125 C 529.746094 352.734375 511.847656 353.265625 494.015625 354.628906 L 521.867188 279.796875 C 525.480469 270.070312 529.132812 260.210938 529.980469 249.988281 C 531.203125 235.160156 526.597656 219.503906 532.980469 205.785156 C 533.488281 204.679688 534.132812 203.535156 535.296875 202.960938 C 536.457031 202.382812 537.925781 202.527344 539.261719 202.683594 C 541.78125 202.988281 549.480469 202.683594 551.308594 204.140625 C 554.007812 206.253906 552.226562 206.570312 551.273438 209.980469 C 549.570312 216.074219 547.960938 221.71875 547.980469 228.074219 C 548.003906 239.609375 551.960938 251.792969 560.023438 260.890625 Z M 560.023438 260.890625 "/>
<path style=" stroke:none;fill-rule:nonzero;fill:rgb(27.45098%,26.27451%,32.54902%);fill-opacity:1;" d="M 676.277344 435.953125 C 679.621094 431.941406 682.773438 427.789062 685.730469 423.492188 C 684.234375 420.59375 682.582031 417.761719 681.269531 414.800781 C 679.261719 410.261719 678.109375 405.453125 676.96875 400.675781 C 676.578125 399.050781 676.191406 397.425781 675.804688 395.800781 C 671.605469 378.109375 667.664062 360.171875 666.847656 342.238281 C 666.769531 340.75 666.722656 339.257812 666.703125 337.769531 C 666.703125 337.550781 666.703125 337.339844 666.703125 337.089844 C 666.703125 335.457031 666.703125 333.824219 666.703125 332.199219 C 666.792969 328.132812 667.078125 324.035156 667.597656 319.957031 C 667.695312 319.15625 667.804688 318.359375 667.925781 317.558594 C 667.925781 317.382812 667.972656 317.214844 668 317.039062 L 718.984375 315.355469 L 723.273438 315.214844 C 726.21875 315.121094 729.335938 314.972656 731.765625 313.460938 C 735.851562 310.925781 736.332031 305.730469 736.265625 301.265625 C 736.015625 289.980469 734.601562 278.742188 732.035156 267.699219 C 730.101562 259.390625 727.34375 250.902344 721.148438 244.523438 C 716.066406 239.277344 708.703125 235.464844 706.058594 228.941406 C 705.074219 226.515625 704.828125 223.851562 703.554688 221.535156 C 702.277344 219.21875 700.171875 217.519531 698.1875 215.730469 C 691.191406 209.46875 685.390625 202.207031 681.015625 194.242188 C 677.980469 188.714844 674.6875 182.617188 670.722656 178.796875 C 670.527344 178.597656 670.332031 178.414062 670.128906 178.238281 C 666.757812 175.226562 662.894531 173.902344 658.320312 175.957031 C 657.5 176.328125 656.714844 176.769531 655.984375 177.269531 C 654.351562 178.394531 652.863281 179.675781 651.535156 181.089844 C 646.917969 185.890625 642.863281 191.113281 639.441406 196.671875 C 637.039062 200.585938 634.972656 204.664062 633.265625 208.867188 C 631.917969 212.1875 630.804688 215.582031 629.929688 219.03125 C 629.285156 221.582031 628.773438 224.164062 628.371094 226.753906 C 626.871094 236.480469 626.871094 246.398438 627.078125 256.25 C 627.304688 265.300781 627.746094 274.371094 628.652344 283.386719 C 628.878906 285.570312 629.128906 287.75 629.402344 289.925781 C 629.953125 294.230469 630.632812 298.519531 631.441406 302.796875 C 631.765625 304.429688 632.09375 306.0625 632.464844 307.6875 C 632.554688 308.121094 632.652344 308.554688 632.746094 308.984375 L 632.792969 309.164062 C 633.785156 312.945312 634.550781 316.769531 635.09375 320.621094 C 635.15625 321.105469 635.199219 321.585938 635.230469 322.0625 C 635.355469 324.277344 635.335938 326.496094 635.167969 328.710938 C 634.996094 331.324219 634.726562 333.933594 634.59375 336.546875 C 634.59375 337.007812 634.59375 337.464844 634.539062 337.902344 C 634.503906 339.222656 634.539062 340.546875 634.539062 341.867188 C 634.691406 345.027344 635.109375 348.171875 635.785156 351.277344 C 637.050781 357.050781 639.234375 362.625 642.269531 367.832031 C 642.554688 368.320312 642.847656 368.800781 643.140625 369.277344 C 646.941406 375.414062 651.738281 381.042969 655.253906 387.324219 C 658.289062 392.976562 660.554688 398.9375 662.003906 405.082031 C 662.503906 407.109375 662.976562 409.140625 663.425781 411.175781 C 664.125 414.429688 664.746094 417.707031 665.382812 420.988281 C 665.445312 421.3125 665.511719 421.664062 665.578125 421.960938 C 666.425781 426.3125 667.320312 430.640625 668.464844 434.886719 C 669.132812 437.359375 669.882812 439.800781 670.761719 442.199219 Z M 676.277344 435.953125 "/>
<path style=" stroke:none;fill-rule:nonzero;fill:rgb(97.254902%,42.745098%,43.921569%);fill-opacity:1;" d="M 666.261719 382.554688 C 666.261719 383.164062 666.214844 383.773438 666.1875 384.390625 C 666.050781 387.363281 665.75 390.328125 665.28125 393.273438 C 664.65625 397.292969 663.570312 401.238281 662.03125 405.054688 C 661.015625 407.558594 659.71875 409.96875 658.164062 412.242188 C 656.785156 414.257812 655.171875 416.136719 653.351562 417.84375 C 648.851562 422.070312 642.375 423.417969 636.105469 425.199219 C 633.222656 425.957031 630.4375 426.984375 627.792969 428.269531 C 627.320312 428.507812 626.855469 428.765625 626.40625 429.035156 L 618.5625 433.730469 C 616.117188 435.1875 613.621094 436.695312 611.941406 438.859375 C 611.667969 439.226562 611.417969 439.609375 611.191406 440.003906 C 610.132812 441.992188 609.355469 444.097656 608.882812 446.261719 C 604.804688 461.613281 600.71875 476.980469 597.921875 492.558594 C 597.734375 493.589844 597.554688 494.625 597.359375 495.664062 L 597.292969 495.988281 C 597.257812 495.910156 597.21875 495.835938 597.171875 495.765625 C 577.109375 506.726562 556.304688 516.617188 534.867188 524.535156 L 530.210938 489.308594 C 529.726562 486.445312 529.566406 483.542969 529.734375 480.652344 C 530.175781 476.089844 532.230469 471.769531 532.785156 467.222656 C 533.308594 462.773438 532.378906 458.28125 530.109375 454.304688 C 529.222656 452.757812 528.113281 451.242188 527.910156 449.515625 C 527.707031 447.789062 528.8125 446.207031 530.730469 446.03125 C 532.230469 444.527344 532.347656 442.476562 531.90625 440.445312 C 531.671875 439.382812 531.320312 438.34375 530.859375 437.347656 C 529.582031 434.515625 527.972656 431.433594 529.066406 428.539062 C 529.355469 428.015625 529.484375 427.429688 529.441406 426.847656 C 529.449219 426.8125 529.449219 426.773438 529.441406 426.738281 C 529.183594 425.980469 528.1875 425.648438 527.671875 425.003906 C 526.695312 423.804688 527.671875 422.171875 528.269531 420.789062 C 528.855469 419.304688 529.191406 417.75 529.277344 416.175781 C 529.359375 415.304688 529.417969 414.421875 529.523438 413.554688 C 529.667969 412.382812 529.902344 411.21875 530.21875 410.074219 C 532.042969 403.582031 536.421875 397.917969 542.539062 394.140625 C 545.453125 392.363281 548.703125 391.070312 551.679688 389.398438 C 554.726562 387.539062 557.636719 385.503906 560.390625 383.300781 C 566.992188 378.332031 573.859375 373.648438 580.984375 369.25 C 588.648438 364.519531 596.589844 360.164062 604.765625 356.203125 C 606.515625 355.347656 608.265625 354.515625 610.015625 353.707031 C 611.921875 352.804688 613.835938 351.949219 615.765625 351.140625 C 621.945312 348.476562 628.953125 349.472656 635.785156 351.25 C 638.648438 351.988281 641.476562 352.867188 644.203125 353.667969 C 646.867188 354.449219 649.433594 355.492188 651.851562 356.769531 C 657.902344 359.980469 662.902344 364.722656 664.980469 370.710938 C 664.984375 370.75 664.984375 370.789062 664.980469 370.828125 C 666.300781 374.582031 666.382812 378.605469 666.261719 382.554688 Z M 666.261719 382.554688 "/>
<use xlink:href="#surface23" mask="url(#mask6)"/>
<path style=" stroke:none;fill-rule:nonzero;fill:rgb(24.705882%,23.921569%,33.72549%);fill-opacity:1;" d="M 595.074219 270.339844 C 594.867188 269.910156 594.417969 269.621094 593.902344 269.578125 C 593.386719 269.539062 592.886719 269.757812 592.601562 270.148438 C 592.320312 270.539062 592.292969 271.039062 592.539062 271.453125 L 591.789062 271.785156 L 614.148438 313.191406 L 618.1875 311.40625 L 595.832031 269.972656 Z M 595.074219 270.339844 "/>
<path style=" stroke:none;fill-rule:nonzero;fill:rgb(98.431373%,74.509804%,74.509804%);fill-opacity:1;" d="M 671.007812 183.613281 C 671.007812 207.558594 649.523438 226.96875 623.023438 226.96875 C 596.523438 226.96875 575.039062 207.558594 575.039062 183.613281 C 575.039062 159.667969 596.523438 140.253906 623.023438 140.253906 C 649.523438 140.253906 671.007812 159.667969 671.007812 183.613281 Z M 671.007812 183.613281 "/>
<path style=" stroke:none;fill-rule:nonzero;fill:rgb(27.45098%,26.27451%,32.54902%);fill-opacity:1;" d="M 686.355469 156.769531 C 686.128906 153.324219 685.5625 149.902344 684.660156 146.546875 C 681.839844 135.59375 676.691406 124.808594 667.820312 116.941406 C 667.273438 115.019531 666.621094 113.121094 665.863281 111.257812 C 665.851562 111.214844 665.832031 111.167969 665.8125 111.125 C 663.164062 104.558594 659.339844 98.429688 654.492188 92.988281 C 651.679688 89.832031 648.035156 86.714844 643.550781 86.59375 C 642.292969 86.550781 640.957031 86.75 639.804688 86.226562 C 638.953125 85.730469 638.238281 85.070312 637.710938 84.289062 C 633.1875 79.121094 625.863281 76.648438 618.699219 77.859375 L 618.234375 77.949219 C 617.96875 77.996094 617.707031 78.050781 617.484375 78.109375 C 617.257812 78.171875 616.851562 78.273438 616.539062 78.363281 C 616.882812 78.875 617.21875 79.398438 617.550781 79.925781 C 618.441406 81.359375 619.265625 82.820312 620.023438 84.316406 C 620.65625 85.5625 621.238281 86.828125 621.773438 88.117188 C 614.09375 88.910156 607.839844 93.835938 602.128906 98.523438 L 588.679688 109.550781 C 588.652344 109.570312 588.632812 109.589844 588.609375 109.613281 L 588.21875 109.953125 C 588.121094 110.039062 588.027344 110.128906 587.9375 110.222656 C 587.898438 110.25 587.867188 110.28125 587.839844 110.316406 C 587.726562 110.425781 587.621094 110.542969 587.515625 110.65625 C 587.328125 110.871094 587.160156 111.097656 587.011719 111.332031 C 586.941406 111.433594 586.875 111.542969 586.820312 111.652344 C 586.796875 111.683594 586.78125 111.71875 586.765625 111.753906 C 586.71875 111.847656 586.675781 111.941406 586.636719 112.039062 C 586.636719 112.050781 586.636719 112.066406 586.636719 112.078125 C 586.617188 112.132812 586.601562 112.191406 586.585938 112.25 C 586.433594 112.726562 586.476562 113.234375 586.714844 113.683594 L 595.582031 113.773438 L 596.625 113.773438 C 596.671875 114.84375 596.707031 115.921875 596.753906 116.992188 C 595.34375 117.941406 593.992188 118.960938 592.703125 120.039062 C 591.296875 121.214844 589.976562 122.472656 588.753906 123.804688 C 580.753906 132.539062 576.578125 143.816406 576.15625 155.171875 C 576.15625 155.523438 576.15625 155.847656 576.15625 156.214844 C 576.15625 157.25 576.15625 158.289062 576.15625 159.316406 C 576.15625 159.996094 576.222656 160.671875 576.285156 161.351562 C 576.289062 162.234375 576.546875 163.097656 577.035156 163.863281 C 577.097656 163.949219 577.167969 164.03125 577.246094 164.109375 C 577.695312 164.550781 578.234375 164.90625 578.832031 165.164062 L 579.476562 165.449219 C 579.800781 165.589844 580.109375 165.726562 580.40625 165.882812 C 583.234375 167.324219 584.90625 170.109375 587.476562 171.898438 C 587.628906 172 587.777344 172.101562 587.929688 172.191406 L 588.265625 172.394531 L 588.476562 172.515625 L 588.761719 172.664062 C 588.945312 172.765625 589.140625 172.859375 589.335938 172.941406 L 589.699219 173.105469 L 589.757812 173.105469 C 590.058594 173.226562 590.355469 173.339844 590.664062 173.441406 L 591.09375 173.578125 L 591.21875 173.621094 C 591.339844 173.652344 591.46875 173.695312 591.59375 173.722656 C 591.847656 173.789062 592.097656 173.851562 592.34375 173.902344 L 593.09375 174.054688 C 593.386719 174.101562 593.6875 174.148438 593.984375 174.179688 L 594.429688 174.234375 L 594.878906 174.277344 C 595.59375 174.335938 596.3125 174.367188 597.039062 174.378906 C 599.3125 174.367188 601.582031 174.222656 603.835938 173.953125 L 622.972656 171.917969 C 627.3125 171.464844 631.742188 171.011719 636.023438 171.808594 C 639.652344 172.488281 642.996094 174.046875 646.519531 175.148438 C 647.316406 175.402344 648.109375 175.632812 648.914062 175.828125 C 649.203125 175.902344 649.503906 175.984375 649.804688 176.050781 L 650.21875 176.144531 L 651.175781 176.355469 C 651.523438 176.429688 651.867188 176.503906 652.210938 176.566406 C 652.699219 176.660156 653.179688 176.742188 653.664062 176.824219 C 653.996094 176.882812 654.332031 176.933594 654.671875 176.984375 L 654.738281 176.984375 L 655.699219 177.121094 L 655.929688 177.121094 L 656.640625 177.210938 C 656.988281 177.257812 657.332031 177.296875 657.683594 177.332031 C 658.449219 177.417969 659.214844 177.492188 659.980469 177.554688 C 661.214844 177.664062 662.460938 177.746094 663.726562 177.8125 L 664.972656 177.878906 L 666.214844 177.933594 L 669.964844 178.082031 L 670.65625 178.082031 C 672.214844 178.183594 673.78125 178.109375 675.320312 177.867188 C 675.589844 177.820312 675.851562 177.765625 676.113281 177.699219 C 676.375 177.628906 676.59375 177.5625 676.863281 177.480469 C 679.675781 176.503906 681.730469 174.261719 683.152344 171.863281 C 683.453125 171.355469 683.730469 170.847656 683.984375 170.328125 C 684.242188 169.804688 684.472656 169.277344 684.683594 168.75 C 684.945312 168.070312 685.171875 167.425781 685.363281 166.75 C 685.425781 166.566406 685.476562 166.382812 685.523438 166.195312 C 685.566406 166.003906 685.671875 165.632812 685.730469 165.347656 C 685.917969 164.570312 686.0625 163.78125 686.167969 162.988281 C 686.167969 162.738281 686.234375 162.480469 686.265625 162.230469 C 686.332031 161.554688 686.382812 160.921875 686.414062 160.261719 C 686.414062 159.757812 686.414062 159.25 686.414062 158.742188 C 686.40625 158.195312 686.355469 157.46875 686.355469 156.769531 Z M 667.132812 116.328125 C 666.523438 115.8125 665.902344 115.316406 665.273438 114.851562 C 665.972656 115.25 666.597656 115.746094 667.125 116.328125 Z M 667.132812 116.328125 "/>
<path style=" stroke:none;fill-rule:nonzero;fill:rgb(27.45098%,26.27451%,32.54902%);fill-opacity:1;" d="M 530.933594 181.226562 C 525.285156 180.597656 519.6875 178.363281 514.117188 179.460938 C 510.628906 180.136719 507.628906 182.09375 504.839844 184.105469 C 494.460938 191.625 485.636719 200.738281 478.773438 211.035156 C 477.609375 212.574219 476.789062 214.304688 476.367188 216.128906 C 476.007812 218.242188 476.644531 220.390625 477.402344 222.417969 C 482.527344 236.109375 493.496094 247.542969 498.492188 261.277344 C 503.738281 275.71875 501.917969 291.503906 498.046875 306.300781 C 493.253906 324.566406 485.460938 342.078125 474.925781 358.261719 C 473.496094 360.667969 471.703125 362.882812 469.601562 364.847656 C 466.875 367.21875 463.207031 368.910156 461.589844 372.011719 C 460.839844 373.367188 460.621094 374.914062 460.089844 376.363281 C 458.589844 380.425781 454.960938 383.910156 454.609375 388.199219 C 454.347656 391.46875 456.0625 394.566406 457.105469 397.683594 C 458.863281 403.035156 458.675781 408.757812 456.574219 414.007812 C 452.769531 423.425781 442.828125 431.988281 445.714844 441.667969 C 452.15625 439.996094 459.292969 437.820312 462.332031 432.421875 C 463.402344 430.511719 463.933594 428.234375 465.742188 426.839844 C 469.347656 424.070312 475.488281 426.574219 479.320312 424.027344 C 482.214844 422.089844 482.320312 418.121094 481.03125 415.074219 C 479.738281 412.023438 477.519531 409.339844 476.53125 406.203125 C 474.804688 400.546875 477.566406 394.566406 477.054688 388.71875 C 476.816406 386.007812 475.894531 383.414062 475.824219 380.71875 C 475.699219 375.480469 478.90625 370.558594 483.171875 367 C 487.441406 363.445312 492.710938 361.085938 497.898438 358.761719 L 517.511719 349.957031 C 524.628906 346.769531 532.425781 342.890625 534.757812 336.035156 C 535.640625 333.464844 535.648438 330.730469 535.691406 328.046875 C 536.359375 287.054688 547.726562 246.886719 559.023438 207.179688 C 560.78125 201.03125 562.5625 194.851562 565.171875 188.945312 C 567.78125 183.035156 572.886719 178.292969 575.488281 172.804688 C 560.398438 171.207031 546.609375 183.003906 530.933594 181.226562 Z M 530.933594 181.226562 "/>
<path style=" stroke:none;fill-rule:nonzero;fill:rgb(97.254902%,42.745098%,43.921569%);fill-opacity:1;" d="M 639.054688 438.398438 C 640.785156 447.882812 641.84375 457.570312 642.667969 467.210938 C 629.171875 477.316406 614.640625 486.109375 599.878906 494.269531 C 599.039062 494.734375 598.191406 495.195312 597.34375 495.621094 L 597.277344 495.949219 C 597.242188 495.871094 597.203125 495.796875 597.15625 495.722656 C 596.011719 493.488281 594.007812 491.703125 591.519531 490.699219 C 585.984375 480.195312 580.457031 469.695312 574.933594 459.195312 C 571.9375 453.523438 568.9375 447.800781 567.4375 441.683594 C 567.4375 441.554688 567.371094 441.417969 567.347656 441.289062 C 566.207031 436.546875 565.945312 431.621094 565.1875 426.820312 C 564.804688 424.070312 564.117188 421.359375 563.140625 418.730469 C 562.242188 416.394531 561.003906 414.125 559.910156 411.839844 C 558.558594 409.023438 557.429688 406.171875 557.375 403.128906 C 557.375 402.160156 557.445312 401.097656 556.917969 400.285156 C 556.359375 399.582031 555.664062 398.976562 554.871094 398.496094 C 552.859375 396.882812 551.90625 394.449219 552.351562 392.050781 C 547.855469 392.261719 545.320312 396.632812 543.511719 400.339844 C 541.871094 403.960938 539.714844 407.378906 537.09375 410.5 C 535.1875 412.730469 532.761719 414.554688 529.988281 415.84375 C 529.742188 415.953125 529.492188 416.0625 529.238281 416.15625 C 522.976562 418.648438 515.667969 417.769531 508.882812 416.644531 C 502.953125 415.660156 496.820312 414.441406 492.050781 411.109375 L 491.539062 410.742188 C 490.128906 409.683594 488.871094 408.46875 487.792969 407.125 C 483.796875 402.195312 482.027344 395.699219 481.042969 389.511719 C 480.953125 388.929688 480.863281 388.347656 480.78125 387.765625 C 480.101562 383.394531 479.910156 378.972656 480.21875 374.566406 C 480.308594 373.484375 480.4375 372.398438 480.59375 371.324219 C 480.699219 370.644531 480.8125 369.914062 480.9375 369.207031 C 480.9375 369.1875 480.9375 369.167969 480.9375 369.148438 C 481.132812 368.03125 481.34375 366.90625 481.554688 365.761719 C 482.304688 361.917969 483.054688 357.976562 485.304688 354.671875 C 486.78125 352.613281 488.652344 350.804688 490.820312 349.332031 C 491.628906 348.757812 492.464844 348.207031 493.300781 347.679688 C 494.667969 346.824219 496.070312 346.011719 497.492188 345.246094 C 501.078125 343.308594 504.839844 341.652344 508.738281 340.300781 C 509.667969 339.976562 510.613281 339.671875 511.558594 339.378906 C 515.230469 338.199219 519.183594 337.917969 523.015625 338.558594 C 526.410156 339.003906 529.84375 339.1875 533.273438 339.101562 C 542.066406 338.945312 550.898438 337.429688 559.675781 336.445312 C 571.867188 335.09375 584.964844 334.929688 595.597656 340.511719 C 596.109375 340.777344 596.601562 341.054688 597.097656 341.34375 C 602.34375 344.449219 606.574219 348.796875 609.984375 353.652344 C 610.734375 354.675781 611.386719 355.726562 612.03125 356.789062 C 613.519531 359.230469 614.863281 361.742188 616.058594 364.3125 C 616.765625 365.570312 617.148438 366.960938 617.175781 368.375 C 617.160156 368.644531 617.117188 368.910156 617.054688 369.175781 C 616.851562 370.136719 616.449219 371.070312 616.304688 372.046875 C 615.832031 375.738281 619.304688 378.820312 620.601562 382.335938 C 621.441406 384.628906 621.351562 387.078125 621.824219 389.492188 C 622.507812 392.878906 624.34375 395.925781 625.992188 398.976562 C 628.597656 403.882812 630.828125 408.945312 632.664062 414.132812 C 633.96875 417.742188 635.085938 421.40625 636.070312 425.105469 C 636.390625 426.292969 636.691406 427.484375 636.976562 428.675781 C 637.792969 431.953125 638.460938 435.167969 639.054688 438.398438 Z M 639.054688 438.398438 "/>
<path style=" stroke:none;fill-rule:nonzero;fill:rgb(24.705882%,23.921569%,33.72549%);fill-opacity:1;" d="M 718.992188 338.074219 L 718.992188 342.816406 L 718.023438 342.800781 L 716.945312 342.789062 L 704.886719 342.652344 L 675.183594 342.300781 L 666.847656 342.207031 L 664.6875 342.179688 L 652.171875 342.035156 L 634.539062 341.824219 L 597.128906 341.386719 L 532.207031 340.625 L 508.777344 340.355469 L 499.375 340.246094 L 490.722656 340.144531 L 485.332031 340.078125 L 480.226562 340.015625 L 442.371094 339.578125 L 431.875 339.453125 L 429.589844 339.425781 L 428.105469 335.964844 L 417.316406 310.824219 L 415.34375 306.230469 L 416.84375 300.8125 L 423.589844 304.878906 L 427.746094 305.34375 L 496.128906 313.027344 L 508.964844 314.46875 L 536.179688 317.53125 L 562.839844 320.527344 L 573.292969 321.699219 L 635.140625 328.648438 L 652.421875 330.59375 L 666.726562 332.199219 L 717.589844 337.917969 Z M 718.992188 338.074219 "/>
<path style=" stroke:none;fill-rule:nonzero;fill:rgb(31.372549%,30.980392%,37.647059%);fill-opacity:1;" d="M 416.84375 300.8125 L 430.339844 332.652344 L 718.992188 338.074219 L 718.992188 303.523438 Z M 416.84375 300.8125 "/>
<path style=" stroke:none;fill-rule:nonzero;fill:rgb(24.705882%,23.921569%,33.72549%);fill-opacity:1;" d="M 431.839844 336.039062 L 434.085938 530.472656 L 444.585938 529.117188 L 442.335938 336.039062 Z M 431.839844 336.039062 "/>
<path style=" stroke:none;fill-rule:nonzero;fill:rgb(24.705882%,23.921569%,33.72549%);fill-opacity:1;" d="M 718.023438 342.792969 L 716.945312 342.792969 C 715.195312 354.917969 712.304688 366.882812 708.300781 378.558594 L 704.886719 342.652344 L 704.746094 341.121094 L 717.355469 339.808594 L 717.777344 339.765625 Z M 718.023438 342.792969 "/>
<path style=" stroke:none;fill-rule:nonzero;fill:rgb(100%,100%,100%);fill-opacity:1;" d="M 677.003906 319.78125 L 567.167969 321.8125 L 533.054688 311.652344 L 624.523438 306.910156 Z M 677.003906 319.78125 "/>
<path style=" stroke:none;fill-rule:nonzero;fill:rgb(98.431373%,74.509804%,74.509804%);fill-opacity:1;" d="M 539.222656 280.273438 C 538.058594 280.675781 537.027344 281.339844 536.226562 282.203125 C 535.597656 283.136719 535.214844 284.1875 535.109375 285.277344 L 533.265625 295.214844 C 532.984375 296.125 533.03125 297.09375 533.40625 297.972656 C 533.886719 298.808594 535.28125 299.242188 535.976562 298.550781 C 535.886719 300.492188 536.074219 302.566406 537.328125 304.152344 C 538.578125 305.738281 541.203125 306.570312 542.972656 305.464844 C 543.535156 306.292969 544.46875 306.855469 545.53125 307.003906 C 546.59375 307.152344 547.671875 306.875 548.484375 306.238281 C 547.417969 306.5625 547.34375 308.035156 548.101562 308.777344 C 548.949219 309.457031 550.03125 309.847656 551.160156 309.882812 C 564.335938 311.5625 577.769531 310.035156 590.074219 305.460938 C 591.234375 305.027344 588.175781 292.078125 587.867188 290.753906 C 587.117188 287.628906 586.742188 283.816406 583.828125 281.714844 C 576.855469 276.6875 564.46875 275.699219 555.972656 276.296875 C 550.171875 276.691406 544.496094 278.039062 539.222656 280.273438 Z M 539.222656 280.273438 "/>
<use xlink:href="#surface26" mask="url(#mask7)"/>
<path style=" stroke:none;fill-rule:nonzero;fill:rgb(27.45098%,26.27451%,32.54902%);fill-opacity:1;" d="M 651.730469 283.128906 C 624.613281 283.597656 596.933594 283.996094 571.050781 276.660156 C 573.523438 285.316406 573.351562 294.417969 570.554688 302.992188 L 697.351562 312.476562 C 702.730469 312.878906 725.019531 315.1875 730.261719 314.007812 C 735.5 312.832031 734.269531 307.023438 736.257812 302.492188 C 741.722656 290.007812 712.046875 273.882812 698.859375 273.414062 C 682.214844 272.820312 668.503906 282.847656 651.730469 283.128906 Z M 651.730469 283.128906 "/>
<path style=" stroke:none;fill-rule:nonzero;fill:rgb(98.431373%,74.509804%,74.509804%);fill-opacity:1;" d="M 608.613281 285.015625 C 609.777344 285.417969 610.8125 286.082031 611.613281 286.945312 C 612.238281 287.878906 612.625 288.933594 612.738281 290.019531 L 614.582031 299.957031 C 614.859375 300.867188 614.808594 301.832031 614.4375 302.714844 C 613.960938 303.550781 612.558594 303.984375 611.867188 303.292969 C 611.949219 305.234375 611.769531 307.308594 610.519531 308.894531 C 609.265625 310.480469 606.640625 311.3125 604.863281 310.207031 C 604.304688 311.035156 603.367188 311.597656 602.308594 311.746094 C 601.246094 311.894531 600.167969 311.617188 599.355469 310.980469 C 600.417969 311.304688 600.5 312.777344 599.742188 313.523438 C 598.894531 314.199219 597.808594 314.585938 596.675781 314.625 C 583.503906 316.304688 570.074219 314.777344 557.773438 310.203125 C 556.609375 309.769531 559.664062 296.820312 559.976562 295.496094 C 560.726562 292.371094 561.101562 288.558594 564.019531 286.457031 C 570.984375 281.429688 583.378906 280.441406 591.871094 281.039062 C 597.671875 281.433594 603.347656 282.78125 608.613281 285.015625 Z M 608.613281 285.015625 "/>
<path style=" stroke:none;fill-rule:nonzero;fill:rgb(27.45098%,26.27451%,32.54902%);fill-opacity:1;" d="M 429.425781 263.4375 C 426.933594 266.335938 424.4375 269.296875 422.835938 272.675781 C 419.769531 279.125 420.21875 286.429688 420.726562 293.433594 C 420.871094 295.46875 421.050781 297.539062 422.226562 299.226562 C 423.246094 300.5 424.585938 301.535156 426.140625 302.242188 C 432.632812 305.574219 440.234375 306.570312 447.65625 307.316406 C 459.023438 308.453125 470.429688 309.148438 481.875 309.394531 C 510.230469 310.019531 539.023438 307.925781 566.644531 313.730469 C 563.222656 309.035156 563.230469 302.824219 565.144531 297.472656 C 567.054688 292.121094 570.738281 287.460938 574.34375 282.875 C 561.703125 279.253906 548.148438 284.90625 534.90625 284.34375 C 521.3125 283.765625 508.734375 276.667969 495.125 276.675781 C 492.199219 276.675781 489.222656 277.007812 486.382812 276.371094 C 483.539062 275.734375 480.789062 273.796875 480.527344 271.160156 C 484.15625 271.898438 487.597656 269.09375 489.097656 266.019531 C 490.597656 262.941406 490.867188 259.46875 492.320312 256.371094 C 495.941406 248.667969 505.726562 245.097656 511.8125 238.757812 C 512.773438 237.753906 513.679688 236.570312 513.652344 235.242188 C 513.507812 234.117188 512.984375 233.058594 512.152344 232.210938 C 507.089844 226.117188 499.464844 222.726562 493.128906 217.984375 C 490.925781 216.332031 486.480469 210.101562 484.003906 209.523438 C 479.417969 208.460938 475.527344 214.449219 472.542969 217.371094 C 457.476562 232.160156 443.105469 247.515625 429.425781 263.4375 Z M 429.425781 263.4375 "/>
<use xlink:href="#surface29" mask="url(#mask8)"/>
<use xlink:href="#surface32" mask="url(#mask9)"/>
<use xlink:href="#surface35" mask="url(#mask10)"/>
</g>
</svg>
